<?xml version="1.0" encoding="UTF-8"?>
<svg width="221px" height="221px" viewBox="0 0 221 221" version="1.1" xmlns="http://www.w3.org/2000/svg" xmlns:xlink="http://www.w3.org/1999/xlink">
    <!-- Generator: Sketch 42 (36781) - http://www.bohemiancoding.com/sketch -->
    <title>aboutme_head</title>
    <desc>Created with Sketch.</desc>
    <defs>
        <circle id="path-1" cx="50.5" cy="50.5" r="50.5"></circle>
        <polygon id="path-3" points="4.00015 12 8 12 8 0 4.00015 0 0.0003 0 0.0003 12 4.00015 12"></polygon>
        <path d="M0,0 L16,0 L16,16.0083475 C16,20.4220153 12.4092877,24 8,24 L8,24 C3.581722,24 0,20.4199239 0,16.0083475 L0,0 Z" id="path-5"></path>
        <polygon id="path-7" points="4.00015 12 8 12 8 0 4.00015 0 0.0003 0 0.0003 12 4.00015 12"></polygon>
    </defs>
    <g id="asset" stroke="none" stroke-width="1" fill="none" fill-rule="evenodd">
        <g id="aboutme_head">
            <circle id="Oval-6" fill="#FFB801" opacity="0.149999991" cx="110.5" cy="110.5" r="110.5"></circle>
            <circle id="Oval-6" fill="#FFB801" opacity="0.300000012" cx="110.5" cy="110.5" r="80.5"></circle>
            <circle id="Oval-6" fill="#FFB801" opacity="0.300000012" cx="110.5" cy="110.5" r="60.5"></circle>
            <g id="Group-8" transform="translate(60.000000, 60.000000)">
                <mask id="mask-2" fill="white">
                    <use xlink:href="#path-1"></use>
                </mask>
                <use id="Oval-6" fill="#E35800" xlink:href="#path-1"></use>
                <g id="Group-48" mask="url(#mask-2)">
                    <g transform="translate(13.000000, 6.000000)">
                        <g id="Group-6" stroke="none" stroke-width="1" fill="none" fill-rule="evenodd" transform="translate(19.000000, 38.000000)">
                            <path d="M12,2 L12,2 C12,3.104 11.104,4 10,4 L2,4 C0.896,4 0,3.104 0,2 C0,0.896 0.896,0 2,0 L10,0 C11.104,0 12,0.896 12,2" id="Fill-16" fill="#30170C"></path>
                            <path d="M37,2 L37,2 C37,3.104 36.104,4 35,4 L27,4 C25.896,4 25,3.104 25,2 C25,0.896 25.896,0 27,0 L35,0 C36.104,0 37,0.896 37,2" id="Fill-17" fill="#30170C"></path>
                        </g>
                        <path d="M38,76 C43.5216667,76 48,73.314 48,70 L28,70 C28,73.314 32.4766667,76 38,76" id="Fill-21" stroke="none" fill="#FFFFFF" fill-rule="evenodd"></path>
                        <g id="Page-1" stroke="none" stroke-width="1" fill="none" fill-rule="evenodd" transform="translate(34.000000, 50.000000)">
                            <mask id="mask-4" fill="white">
                                <use xlink:href="#path-3"></use>
                            </mask>
                            <g id="Clip-2"></g>
                            <path d="M4.0003,12 L4.0003,12 C1.7913,12 0.0003,10.209 0.0003,8 L0.0003,4 C0.0003,1.791 1.7913,0 4.0003,0 C6.2093,0 8.0003,1.791 8.0003,4 L8.0003,8 C8.0003,10.209 6.2093,12 4.0003,12" id="Fill-1" fill="#F98A3E" mask="url(#mask-4)"></path>
                        </g>
                        <path d="M46,51.0500002 C46,48.8319941 47.7982386,47.033086 50.0169142,47.033086 C52.2349203,47.033086 54.0338284,48.8319941 54.0338284,51.0500002" id="Page-1" stroke="#003B4A" stroke-width="2" stroke-linecap="round" fill="none"></path>
                        <path d="M21,51.0500002 C21,48.8319941 22.7982386,47.033086 25.0169142,47.033086 C27.2349203,47.033086 29.0338284,48.8319941 29.0338284,51.0500002" id="Page-1" stroke="#003B4A" stroke-width="2" stroke-linecap="round" fill="none"></path>
                        <g id="Page-1" stroke="none" stroke-width="1" fill="none" fill-rule="evenodd">
                            <g id="Group-26" transform="translate(30.000000, 78.000000)">
                                <mask id="mask-6" fill="white">
                                    <use xlink:href="#path-5"></use>
                                </mask>
                                <use id="Rectangle-14" fill="#FCA96B" xlink:href="#path-5"></use>
                                <path d="M-20.5871,-14.3708 L-24.0001,-40.4998 C-24.0001,-58.1728 -9.6731,-72.4998 7.9999,-72.4998 C25.6729,-72.4998 39.9999,-58.1728 39.9999,-40.4998 L36.5869,-14.3708 C35.1179,0.3152 22.7599,11.5002 7.9999,11.5002 C-6.7601,11.5002 -19.1181,0.3152 -20.5871,-14.3708 Z" id="Fill-1" fill="#F98A3E" mask="url(#mask-6)"></path>
                            </g>
                            <path d="M9.413,59.129 L6,33 C6,15.327 20.327,1 38,1 C55.673,1 70,15.327 70,33 L66.587,59.129 C65.118,73.815 52.76,85 38,85 C23.24,85 10.882,73.815 9.413,59.129 Z" id="Fill-1" fill="#FCA96B"></path>
                            <path d="M59.9999,53.6623 C59.9999,49.2443 63.5819,45.6623 67.9999,45.6623 C72.4179,45.6623 75.9999,49.2443 75.9999,53.6623 C75.9999,58.0803 72.4179,61.6623 67.9999,61.6623 C63.5819,61.6623 59.9999,58.0803 59.9999,53.6623" id="Fill-3" fill="#FCA96B"></path>
                            <path d="M68.9139,23.7253 C65.2659,10.0643 52.8099,0.0003 37.9999,0.0003 C23.1889,0.0003 10.7339,10.0643 7.0859,23.7253 L68.9139,23.7253 Z" id="Fill-8" fill="#30170C"></path>
                            <g id="Group-12" transform="translate(0.000000, 45.000000)" fill="#FCA96B">
                                <path d="M-0.0001,8.6623 C-0.0001,4.2443 3.5819,0.6623 7.9999,0.6623 C12.4179,0.6623 15.9999,4.2443 15.9999,8.6623 C15.9999,13.0803 12.4179,16.6623 7.9999,16.6623 C3.5819,16.6623 -0.0001,13.0803 -0.0001,8.6623" id="Fill-10"></path>
                            </g>
                            <path d="M10.1551,57.6623 C10.0631,56.3443 10.0001,55.0153 10.0001,53.6623 C10.0001,31.5713 22.5361,13.6623 38.0001,13.6623 C53.4641,13.6623 66.0001,31.5713 66.0001,53.6623 C66.0001,55.0153 65.9361,56.3443 65.8441,57.6623 L67.4841,57.6623 L70.0001,32.5003 C70.0001,14.8273 55.6731,0.5003 38.0001,0.5003 C20.3271,0.5003 6.0001,14.8273 6.0001,32.5003 L8.5161,57.6623 L10.1551,57.6623 Z" id="Fill-13" fill="#30170C"></path>
                        </g>
                        <g id="Group-6" stroke="none" stroke-width="1" fill="none" fill-rule="evenodd" transform="translate(19.000000, 38.000000)">
                            <path d="M12,2 L12,2 C12,3.104 11.104,4 10,4 L2,4 C0.896,4 0,3.104 0,2 C0,0.896 0.896,0 2,0 L10,0 C11.104,0 12,0.896 12,2" id="Fill-16" fill="#30170C"></path>
                            <path d="M37,2 L37,2 C37,3.104 36.104,4 35,4 L27,4 C25.896,4 25,3.104 25,2 C25,0.896 25.896,0 27,0 L35,0 C36.104,0 37,0.896 37,2" id="Fill-17" fill="#30170C"></path>
                        </g>
                        <path d="M38,72 C43.5216667,72 48,69.314 48,66 L28,66 C28,69.314 32.4766667,72 38,72" id="Fill-21" stroke="none" fill="#FFFFFF" fill-rule="evenodd"></path>
                        <g id="Page-1" stroke="none" stroke-width="1" fill="none" fill-rule="evenodd" transform="translate(34.000000, 50.000000)">
                            <mask id="mask-8" fill="white">
                                <use xlink:href="#path-7"></use>
                            </mask>
                            <g id="Clip-2"></g>
                            <path d="M4.0003,12 L4.0003,12 C1.7913,12 0.0003,10.209 0.0003,8 L0.0003,4 C0.0003,1.791 1.7913,0 4.0003,0 C6.2093,0 8.0003,1.791 8.0003,4 L8.0003,8 C8.0003,10.209 6.2093,12 4.0003,12" id="Fill-1" fill="#F98A3E" mask="url(#mask-8)"></path>
                        </g>
                        <path d="M46,51.0500002 C46,48.8319941 47.7982386,47.033086 50.0169142,47.033086 C52.2349203,47.033086 54.0338284,48.8319941 54.0338284,51.0500002" id="Page-1" stroke="#003B4A" stroke-width="2" stroke-linecap="round" fill="none"></path>
                        <path d="M21,51.0500002 C21,48.8319941 22.7982386,47.033086 25.0169142,47.033086 C27.2349203,47.033086 29.0338284,48.8319941 29.0338284,51.0500002" id="Page-1" stroke="#003B4A" stroke-width="2" stroke-linecap="round" fill="none"></path>
                        <g id="Group-24" stroke="none" stroke-width="1" fill="none" fill-rule="evenodd" transform="translate(7.000000, 44.000000)">
                            <path d="M27,2 L27,8 C27,9.104 26.104,10 25,10 L11,10 C9.896,10 9,9.104 9,8 L9,2 C9,0.896 9.896,0 11,0 L25,0 C26.104,0 27,0.896 27,2" id="Fill-23" fill="#FFFFFF" opacity="0.300000012"></path>
                            <path d="M27,2 L27,8 C27,9.104 26.104,10 25,10 L11,10 C9.896,10 9,9.104 9,8 L9,2 C9,0.896 9.896,0 11,0 L25,0 C26.104,0 27,0.896 27,2 Z" id="Stroke-24" stroke="#003B4A"></path>
                            <path d="M53,2 L53,8 C53,9.104 52.104,10 51,10 L37,10 C35.896,10 35,9.104 35,8 L35,2 C35,0.896 35.896,0 37,0 L51,0 C52.104,0 53,0.896 53,2" id="Fill-25" fill="#FFFFFF" opacity="0.300000012"></path>
                            <path d="M53,2 L53,8 C53,9.104 52.104,10 51,10 L37,10 C35.896,10 35,9.104 35,8 L35,2 C35,0.896 35.896,0 37,0 L51,0 C52.104,0 53,0.896 53,2 Z" id="Stroke-26" stroke="#003B4A"></path>
                            <path d="M27,2 L35,2" id="Stroke-27" stroke="#003B4A"></path>
                            <path d="M0,2 L9,2" id="Stroke-27" stroke="#003B4A"></path>
                            <path d="M53,2 L62,2" id="Stroke-27" stroke="#003B4A"></path>
                        </g>
                    </g>
                </g>
            </g>
        </g>
    </g>
</svg>