<?xml version="1.0" encoding="UTF-8"?>
<svg width="120px" height="120px" viewBox="0 0 120 120" version="1.1" xmlns="http://www.w3.org/2000/svg" xmlns:xlink="http://www.w3.org/1999/xlink">
    <!-- Generator: Sketch 42 (36781) - http://www.bohemiancoding.com/sketch -->
    <title>serve_graphic</title>
    <desc>Created with Sketch.</desc>
    <defs></defs>
    <g id="asset" stroke="none" stroke-width="1" fill="none" fill-rule="evenodd">
        <g id="serve_graphic">
            <g id="Group-2">
                <rect id="Rectangle-2" x="0" y="0" width="120" height="120"></rect>
                <g id="Group" transform="translate(0.000000, 3.600000)">
                    <path d="M17.25,7.5 C15.1790625,7.5 13.5,5.8209375 13.5,3.75 C13.5,1.6790625 15.1790625,0 17.25,0 L49.125,0 C51.1959375,0 52.875,1.6790625 52.875,3.75 C52.875,5.8209375 51.1959375,7.5 49.125,7.5 L17.25,7.5 Z" id="Fill-1" fill="#E3E3E3"></path>
                    <path d="M65.25,7.5 C63.1790625,7.5 61.5,5.8209375 61.5,3.75 C61.5,1.6790625 63.1790625,0 65.25,0 L73.125,0 C75.1959375,0 76.875,1.6790625 76.875,3.75 C76.875,5.8209375 75.1959375,7.5 73.125,7.5 L65.25,7.5 Z" id="Fill-1" fill="#E3E3E3"></path>
                    <path d="M41.4375,15 C39.3665625,15 37.6875,13.3209375 37.6875,11.25 C37.6875,9.1790625 39.3665625,7.5 41.4375,7.5 L24,7.5 C26.0709375,7.5 27.75,9.1790625 27.75,11.25 C27.75,13.3209375 26.0709375,15 24,15 L41.4375,15 Z" id="Fill-3" fill="#E3E3E3"></path>
                    <path d="M13.05,22.5 C10.9790625,22.5 9.3,20.8209375 9.3,18.75 C9.3,16.6790625 10.9790625,15 13.05,15 L98.925,15 C100.995938,15 102.675,16.6790625 102.675,18.75 C102.675,20.8209375 100.995938,22.5 98.925,22.5 L13.05,22.5 Z" id="Fill-1" fill="#E3E3E3"></path>
                    <path d="M94.2375,30 C92.1665625,30 90.4875,28.3209375 90.4875,26.25 C90.4875,24.1790625 92.1665625,22.5 94.2375,22.5 L70.8,22.5 C72.8709375,22.5 74.55,24.1790625 74.55,26.25 C74.55,28.3209375 72.8709375,30 70.8,30 L94.2375,30 Z" id="Fill-3" fill="#E3E3E3"></path>
                    <path d="M43.05,37.5 C40.9790625,37.5 39.3,35.8209375 39.3,33.75 C39.3,31.6790625 40.9790625,30 43.05,30 L107.925,30 C109.995937,30 111.675,31.6790625 111.675,33.75 C111.675,35.8209375 109.995937,37.5 107.925,37.5 L43.05,37.5 Z" id="Fill-1" fill="#E3E3E3"></path>
                    <path d="M3.75,52.5 C1.6790625,52.5 0,50.8209375 0,48.75 C0,46.6790625 1.6790625,45 3.75,45 L80.625,45 C82.6959375,45 84.375,46.6790625 84.375,48.75 C84.375,50.8209375 82.6959375,52.5 80.625,52.5 L3.75,52.5 Z" id="Fill-1" fill="#E3E3E3"></path>
                    <path d="M76.8375,60 C74.7665625,60 73.0875,58.3209375 73.0875,56.25 C73.0875,54.1790625 74.7665625,52.5 76.8375,52.5 L29.4,52.5 C31.4709375,52.5 33.15,54.1790625 33.15,56.25 C33.15,58.3209375 31.4709375,60 29.4,60 L76.8375,60 Z" id="Fill-3" fill="#E3E3E3"></path>
                    <path d="M16.05,67.5 C13.9790625,67.5 12.3,65.8209375 12.3,63.75 C12.3,61.6790625 13.9790625,60 16.05,60 L113.925,60 C115.995938,60 117.675,61.6790625 117.675,63.75 C117.675,65.8209375 115.995938,67.5 113.925,67.5 L16.05,67.5 Z" id="Fill-1" fill="#E3E3E3"></path>
                    <path d="M62.55,82.5 C60.4790625,82.5 58.8,80.8209375 58.8,78.75 C58.8,76.6790625 60.4790625,75 62.55,75 L106.425,75 C108.495937,75 110.175,76.6790625 110.175,78.75 C110.175,80.8209375 108.495937,82.5 106.425,82.5 L62.55,82.5 Z" id="Fill-1" fill="#E3E3E3"></path>
                    <path d="M95.1375,75 C93.0665625,75 91.3875,73.3209375 91.3875,71.25 C91.3875,69.1790625 93.0665625,67.5 95.1375,67.5 L68.7,67.5 C70.7709375,67.5 72.45,69.1790625 72.45,71.25 C72.45,73.3209375 70.7709375,75 68.7,75 L95.1375,75 Z" id="Fill-3" fill="#E3E3E3"></path>
                    <path d="M15.15,97.5 C13.0790625,97.5 11.4,95.8209375 11.4,93.75 C11.4,91.6790625 13.0790625,90 15.15,90 L53.025,90 C55.0959375,90 56.775,91.6790625 56.775,93.75 C56.775,95.8209375 55.0959375,97.5 53.025,97.5 L15.15,97.5 Z" id="Fill-1" fill="#E3E3E3"></path>
                    <path d="M71.85,97.5 C69.7790625,97.5 68.1,95.8209375 68.1,93.75 C68.1,91.6790625 69.7790625,90 71.85,90 L82.725,90 C84.7959375,90 86.475,91.6790625 86.475,93.75 C86.475,95.8209375 84.7959375,97.5 82.725,97.5 L71.85,97.5 Z" id="Fill-1" fill="#E3E3E3"></path>
                    <path d="M56.7375,105 C54.6665625,105 52.9875,103.320937 52.9875,101.25 C52.9875,99.1790625 54.6665625,97.5 56.7375,97.5 L36.3,97.5 C38.3709375,97.5 40.05,99.1790625 40.05,101.25 C40.05,103.320937 38.3709375,105 36.3,105 L56.7375,105 Z" id="Fill-3" fill="#E3E3E3"></path>
                    <path d="M31.05,112.5 C28.9790625,112.5 27.3,110.820937 27.3,108.75 C27.3,106.679063 28.9790625,105 31.05,105 L95.925,105 C97.9959375,105 99.675,106.679063 99.675,108.75 C99.675,110.820937 97.9959375,112.5 95.925,112.5 L31.05,112.5 Z" id="Fill-1" fill="#E3E3E3"></path>
                    <g id="Group-54" transform="translate(23.100000, 16.200000)">
                        <g id="Group-53" transform="translate(60.067176, 44.848478) rotate(15.000000) translate(-60.067176, -44.848478) translate(53.917176, 15.598478)">
                            <path d="M7.98827885,4.52326534 C7.39916827,3.95897211 6.90834375,3.21674447 6.90834375,2.32039805 C6.90834375,1.42374823 7.331625,0.626759887 7.98827885,0.11737906 L7.98827885,0.0915914662 C3.37065144,1.41843902 0.00333173077,5.53808301 0.000151442308,10.4166407 C0.000151442308,10.4186127 -2.59348099e-14,10.4207364 -2.59348099e-14,10.4227084 L-2.59348099e-14,10.4233152 L-2.59348099e-14,10.4236185 C-2.59348099e-14,10.4319616 0.000454326923,10.4401529 0.000454326923,10.448496 C0.0142355769,13.7788879 2.71354327,16.4742982 6.04163942,16.4742982 C9.37851923,16.4742982 12.0832788,13.7649323 12.0832788,10.4227084 C12.0832788,7.76264222 8.57723798,5.08755857 7.98827885,4.52326534" id="Fill-17" fill="#11082D"></path>
                            <path d="M6.07047012,58.4929073 L6.07047012,58.4929073 C4.67235474,58.4929073 3.47898935,57.480365 3.24894849,56.0989084 C1.5053932,45.6197403 1.35349656,34.9368503 2.79825618,24.4123264 L3.95027781,16.019223 L8.19066243,16.019223 L9.34268406,24.4123264 C10.7874437,34.9368503 10.635547,45.6197403 8.89199175,56.0989084 C8.66195089,57.480365 7.4685855,58.4929073 6.07047012,58.4929073" id="Fill-18" fill="#2594A7"></path>
                            <path d="M2.76155048,24.4123264 C2.56967308,25.8088005 2.40702404,27.2083084 2.27163462,28.6096366 L9.79604567,28.6096366 C9.66065625,27.2083084 9.49785577,25.8088005 9.30612981,24.4123264 L8.15395673,16.019223 L3.91357212,16.019223 L2.76155048,24.4123264 Z" id="Fill-19" fill="#31C1AD"></path>
                            <path d="M8.17788462,16.019223 L6.05769231,16.019223 L6.05769231,58.4929073 C7.45580769,58.4929073 8.64917308,57.480365 8.87921394,56.0989084 C10.6229207,45.6197403 10.7748173,34.9368503 9.32990625,24.4123264 L8.17788462,16.019223 Z" id="Fill-20" fill="#000000" opacity="0.3"></path>
                        </g>
                        <g id="Group-52" transform="translate(27.461538, 0.000000)">
                            <path d="M8.74104808,0.122121955 L8.74104808,13.9232377 C9.88675962,14.1161896 10.7602788,15.1116919 10.7602788,16.3141017 C10.7602788,17.6544498 9.67534615,18.7411693 8.33720192,18.7411693 C6.99905769,18.7411693 5.914125,17.6544498 5.914125,16.3141017 C5.914125,15.1116919 6.78764423,14.1161896 7.93335577,13.9232377 L7.93335577,0.122121955 C6.67133654,7.47633925 4.88209615,11.2645874 0,16.4823783 C2.35543269,18.6875716 4.78981731,25.7088761 5.28372115,29.0562069 L8.33720192,29.0562069 L11.3906827,29.0562069 C11.8845865,25.7088761 14.3189712,18.6875716 16.6744038,16.4823783 C11.7923077,11.2645874 10.0030673,7.47633925 8.74104808,0.122121955" id="Fill-11" fill="#EFEFEF"></path>
                            <path d="M13.1339515,29.0446783 L8.2877977,29.0446783 L3.44164385,29.0446783 C3.44164385,29.0446783 2.36297078,42.2527806 2.2292977,54.8322723 C2.13318231,63.8773468 2.91563424,72.5973964 3.11311501,75.8486558 C3.27606693,78.5301611 5.49560539,80.6198663 8.17734578,80.6198663 C8.21449962,80.6198663 8.25084578,80.6178438 8.2877977,80.6170347 C8.32474962,80.6178438 8.36109578,80.6198663 8.39824962,80.6198663 C11.07999,80.6198663 13.2995285,78.5301611 13.4624804,75.8486558 C13.6599612,72.5975986 14.4424131,63.8779535 14.3462977,54.8330814 C14.2126246,42.2533874 13.1339515,29.0446783 13.1339515,29.0446783" id="Fill-13" fill="#DA2554"></path>
                            <polygon id="Fill-15" fill="#11082D" points="2.625 30.6627235 13.9326923 30.6627235 13.9326923 29.0446783 2.625 29.0446783"></polygon>
                            <path d="M8.38929808,80.6313949 C11.0710385,80.6313949 13.2905769,78.5416896 13.4535288,75.8601844 C13.6512115,72.6091272 14.4336635,63.8894821 14.3373462,54.8446099 C14.2317404,44.9039475 13.5361154,34.572325 13.2487788,30.674252 L13.9326923,30.674252 L13.9326923,29.0562069 L13.125,29.0562069 L11.3323269,29.0562069 C11.8262308,25.7088761 14.2606154,18.6875716 16.6160481,16.4823783 C11.7339519,11.2645874 9.94471154,7.4765415 8.68269231,0.122121955 L8.68269231,13.92344 C9.82840385,14.1163919 10.7019231,15.1118941 10.7019231,16.3141017 C10.7019231,17.6544498 9.61699038,18.7411693 8.27884615,18.7411693 L8.27884615,80.6285633 C8.31579808,80.6293723 8.35214423,80.6313949 8.38929808,80.6313949" id="Fill-21" fill="#000000" opacity="0.3"></path>
                        </g>
                        <g id="Group-50" transform="translate(11.463356, 45.885454) rotate(-15.000000) translate(-11.463356, -45.885454) translate(7.263356, 17.385454)">
                            <polygon id="Fill-1" fill="#EFEFEF" points="-3.94351218e-14 11.013396 -3.94351218e-14 14.0472306 8.17788462 14.0472306 8.17788462 11.013396 4.08894231 0.0915914662"></polygon>
                            <polygon id="Fill-2" fill="#11082D" points="4.08894231 0.0915914662 2.27163462 4.9457268 5.90625 4.9457268"></polygon>
                            <path d="M7.50820673,56.0978465 L7.24484856,56.2298183 C6.26486538,56.7203894 5.18447596,56.97599 4.08894231,56.97599 C2.99340865,56.97599 1.91301923,56.7203894 0.933036058,56.2298183 L0.669677885,56.0978465 C0.259269231,55.8924559 -4.08562073e-14,55.4721182 -4.08562073e-14,55.0124922 L-4.08562073e-14,54.2455388 L8.17788462,54.2455388 L8.17788462,55.0124922 C8.17788462,55.4721182 7.91861538,55.8924559 7.50820673,56.0978465 Z" id="Fill-3" fill="#EFEFEF"></path>
                            <path d="M2.72596154,54.2455388 L2.72596154,11.0214356 C2.33902644,11.548261 1.87243269,11.8577121 1.3691899,11.8577121 C0.863524038,11.8577121 0.394355769,11.5455306 0.00620913462,11.013396 L-5.74651438e-14,11.013396 L-5.74651438e-14,54.2455388 L0.00620913462,54.2455388 C0.394355769,54.7776734 0.863524038,55.089855 1.3691899,55.089855 C1.87515865,55.089855 2.34417548,54.7776734 2.73217067,54.2455388 L2.72596154,54.2455388 Z" id="Fill-5" fill="#F5993D"></path>
                            <path d="M5.45192308,54.2455388 L5.45192308,11.0214356 C5.06498798,11.548261 4.59839423,11.8577121 4.09515144,11.8577121 C3.58948558,11.8577121 3.12031731,11.5455306 2.73217067,11.013396 L2.72596154,11.013396 L2.72596154,54.2455388 L2.73217067,54.2455388 C3.12031731,54.7776734 3.58948558,55.089855 4.09515144,55.089855 C4.60112019,55.089855 5.07013702,54.7776734 5.45813221,54.2455388 L5.45192308,54.2455388 Z" id="Fill-7" fill="#F5993D"></path>
                            <path d="M8.17788462,54.2455388 L8.17788462,11.0214356 C7.79094952,11.548261 7.32435577,11.8577121 6.82111298,11.8577121 C6.31544712,11.8577121 5.84627885,11.5455306 5.45813221,11.013396 L5.45192308,11.013396 L5.45192308,54.2455388 L5.45813221,54.2455388 C5.84627885,54.7776734 6.31544712,55.089855 6.82111298,55.089855 C7.32708173,55.089855 7.79609856,54.7776734 8.18409375,54.2455388 L8.17788462,54.2455388 Z" id="Fill-9" fill="#F5993D"></path>
                            <path d="M5.45192308,54.2455388 L5.45192308,11.0214356 C5.06498798,11.548261 4.59839423,11.8577121 4.09515144,11.8577121 C3.58948558,11.8577121 3.12031731,11.5455306 2.73217067,11.013396 L2.72596154,11.013396 L2.72596154,54.2455388 L2.73217067,54.2455388 C3.12031731,54.7776734 3.58948558,55.089855 4.09515144,55.089855 C4.60112019,55.089855 5.07013702,54.7776734 5.45813221,54.2455388 L5.45192308,54.2455388 Z" id="Fill-22" fill="#000000" opacity="0.15"></path>
                            <path d="M8.17788462,54.2455388 L8.17788462,11.0214356 C7.79094952,11.548261 7.32435577,11.8577121 6.82111298,11.8577121 C6.31544712,11.8577121 5.84627885,11.5455306 5.45813221,11.013396 L5.45192308,11.013396 L5.45192308,54.2455388 L5.45813221,54.2455388 C5.84627885,54.7776734 6.31544712,55.089855 6.82111298,55.089855 C7.32708173,55.089855 7.79609856,54.7776734 8.18409375,54.2455388 L8.17788462,54.2455388 Z" id="Fill-23" fill="#000000" opacity="0.3"></path>
                        </g>
                    </g>
                </g>
            </g>
        </g>
    </g>
</svg>