<?xml version="1.0" encoding="UTF-8"?>
<svg width="120px" height="120px" viewBox="0 0 120 120" version="1.1" xmlns="http://www.w3.org/2000/svg" xmlns:xlink="http://www.w3.org/1999/xlink">
    <!-- Generator: Sketch 42 (36781) - http://www.bohemiancoding.com/sketch -->
    <title>serve_prototype</title>
    <desc>Created with Sketch.</desc>
    <defs></defs>
    <g id="asset" stroke="none" stroke-width="1" fill="none" fill-rule="evenodd">
        <g id="serve_prototype">
            <g id="Group-2">
                <rect id="Rectangle-2" x="0" y="0" width="120" height="120"></rect>
                <g id="Group" transform="translate(0.000000, 3.600000)">
                    <path d="M29.25,7.5 C27.1790625,7.5 25.5,5.8209375 25.5,3.75 C25.5,1.6790625 27.1790625,0 29.25,0 L91.125,0 C93.1959375,0 94.875,1.6790625 94.875,3.75 C94.875,5.8209375 93.1959375,7.5 91.125,7.5 L29.25,7.5 Z" id="Fill-1" fill="#E3E3E3"></path>
                    <path d="M56.1375,15 C54.0665625,15 52.3875,13.3209375 52.3875,11.25 C52.3875,9.1790625 54.0665625,7.5 56.1375,7.5 L38.7,7.5 C40.7709375,7.5 42.45,9.1790625 42.45,11.25 C42.45,13.3209375 40.7709375,15 38.7,15 L56.1375,15 Z" id="Fill-3" fill="#E3E3E3"></path>
                    <path d="M11.25,22.5 C9.1790625,22.5 7.5,20.8209375 7.5,18.75 C7.5,16.6790625 9.1790625,15 11.25,15 L73.125,15 C75.1959375,15 76.875,16.6790625 76.875,18.75 C76.875,20.8209375 75.1959375,22.5 73.125,22.5 L11.25,22.5 Z" id="Fill-1" fill="#E3E3E3"></path>
                    <path d="M64.2375,45 C62.1665625,45 60.4875,43.3209375 60.4875,41.25 C60.4875,39.1790625 62.1665625,37.5 64.2375,37.5 L34.8,37.5 C36.8709375,37.5 38.55,39.1790625 38.55,41.25 C38.55,43.3209375 36.8709375,45 34.8,45 L64.2375,45 Z" id="Fill-3" fill="#E3E3E3"></path>
                    <path d="M19.05,37.5 C16.9790625,37.5 15.3,35.8209375 15.3,33.75 C15.3,31.6790625 16.9790625,30 19.05,30 L65.925,30 C67.9959375,30 69.675,31.6790625 69.675,33.75 C69.675,35.8209375 67.9959375,37.5 65.925,37.5 L19.05,37.5 Z" id="Fill-1" fill="#E3E3E3"></path>
                    <path d="M82.05,37.5 C79.9790625,37.5 78.3,35.8209375 78.3,33.75 C78.3,31.6790625 79.9790625,30 82.05,30 L104.925,30 C106.995937,30 108.675,31.6790625 108.675,33.75 C108.675,35.8209375 106.995937,37.5 104.925,37.5 L82.05,37.5 Z" id="Fill-1" fill="#E3E3E3"></path>
                    <path d="M3.75,52.5 C1.6790625,52.5 0,50.8209375 0,48.75 C0,46.6790625 1.6790625,45 3.75,45 L80.625,45 C82.6959375,45 84.375,46.6790625 84.375,48.75 C84.375,50.8209375 82.6959375,52.5 80.625,52.5 L3.75,52.5 Z" id="Fill-1" fill="#E3E3E3"></path>
                    <path d="M42.0375,60 C39.9665625,60 38.2875,58.3209375 38.2875,56.25 C38.2875,54.1790625 39.9665625,52.5 42.0375,52.5 L12.6,52.5 C14.6709375,52.5 16.35,54.1790625 16.35,56.25 C16.35,58.3209375 14.6709375,60 12.6,60 L42.0375,60 Z" id="Fill-3" fill="#E3E3E3"></path>
                    <path d="M11.25,67.5 C9.1790625,67.5 7.5,65.8209375 7.5,63.75 C7.5,61.6790625 9.1790625,60 11.25,60 L109.125,60 C111.195938,60 112.875,61.6790625 112.875,63.75 C112.875,65.8209375 111.195938,67.5 109.125,67.5 L11.25,67.5 Z" id="Fill-1" fill="#E3E3E3"></path>
                    <path d="M41.55,82.5 C39.4790625,82.5 37.8,80.8209375 37.8,78.75 C37.8,76.6790625 39.4790625,75 41.55,75 L106.425,75 C108.495938,75 110.175,76.6790625 110.175,78.75 C110.175,80.8209375 108.495938,82.5 106.425,82.5 L41.55,82.5 Z" id="Fill-1" fill="#E3E3E3"></path>
                    <path d="M98.1375,90 C96.0665625,90 94.3875,88.3209375 94.3875,86.25 C94.3875,84.1790625 96.0665625,82.5 98.1375,82.5 L71.7,82.5 C73.7709375,82.5 75.45,84.1790625 75.45,86.25 C75.45,88.3209375 73.7709375,90 71.7,90 L98.1375,90 Z" id="Fill-3" fill="#E3E3E3"></path>
                    <path d="M18.15,97.5 C16.0790625,97.5 14.4,95.8209375 14.4,93.75 C14.4,91.6790625 16.0790625,90 18.15,90 L38.025,90 C40.0959375,90 41.775,91.6790625 41.775,93.75 C41.775,95.8209375 40.0959375,97.5 38.025,97.5 L18.15,97.5 Z" id="Fill-1" fill="#E3E3E3"></path>
                    <path d="M62.85,97.5 C60.7790625,97.5 59.1,95.8209375 59.1,93.75 C59.1,91.6790625 60.7790625,90 62.85,90 L115.725,90 C117.795938,90 119.475,91.6790625 119.475,93.75 C119.475,95.8209375 117.795938,97.5 115.725,97.5 L62.85,97.5 Z" id="Fill-1" fill="#E3E3E3"></path>
                    <path d="M38.7375,105 C36.6665625,105 34.9875,103.320937 34.9875,101.25 C34.9875,99.1790625 36.6665625,97.5 38.7375,97.5 L18.3,97.5 C20.3709375,97.5 22.05,99.1790625 22.05,101.25 C22.05,103.320937 20.3709375,105 18.3,105 L38.7375,105 Z" id="Fill-3" fill="#E3E3E3"></path>
                    <path d="M4.05,112.5 C1.9790625,112.5 0.3,110.820937 0.3,108.75 C0.3,106.679063 1.9790625,105 4.05,105 L86.925,105 C88.9959375,105 90.675,106.679063 90.675,108.75 C90.675,110.820937 88.9959375,112.5 86.925,112.5 L4.05,112.5 Z" id="Fill-1" fill="#E3E3E3"></path>
                    <g id="Page-1" transform="translate(27.900000, 20.700000)">
                        <path d="M21.6101723,46.69 C14.512514,46.69 8.73815499,40.91206 8.73815499,33.81 C8.73815499,32.88222 9.48990879,32.13 10.4171138,32.13 C11.3443188,32.13 12.0960726,32.88222 12.0960726,33.81 C12.0960726,39.0593 16.3641257,43.33 21.6101723,43.33 C22.5373773,43.33 23.2891311,44.08222 23.2891311,45.01 C23.2891311,45.93778 22.5373773,46.69 21.6101723,46.69 Z" id="Fill-1" fill="#DA2554"></path>
                        <path d="M43.1568101,46.69 C42.2296051,46.69 41.4778513,45.93778 41.4778513,45.01 C41.4778513,44.08222 42.2296051,43.33 43.1568101,43.33 C48.4028567,43.33 52.6709099,39.0593 52.6709099,33.81 C52.6709099,32.88222 53.4226637,32.13 54.3498687,32.13 C55.2770736,32.13 56.0288274,32.88222 56.0288274,33.81 C56.0288274,40.91206 50.2544684,46.69 43.1568101,46.69" id="Fill-3" fill="#11082D"></path>
                        <path d="M26.8569185,71.4 C25.9297136,71.4 25.1779598,70.64778 25.1779598,69.72 L25.1779598,66.08 C25.1779598,65.15222 25.9297136,64.4 26.8569185,64.4 C27.7841235,64.4 28.5358773,65.15222 28.5358773,66.08 L28.5358773,69.72 C28.5358773,70.64778 27.7841235,71.4 26.8569185,71.4" id="Fill-5" fill="#DA2554"></path>
                        <path d="M38.0499771,71.4 C37.1227721,71.4 36.3710183,70.64778 36.3710183,69.72 L36.3710183,66.08 C36.3710183,65.15222 37.1227721,64.4 38.0499771,64.4 C38.9771821,64.4 39.7289359,65.15222 39.7289359,66.08 L39.7289359,69.72 C39.7289359,70.64778 38.9771821,71.4 38.0499771,71.4" id="Fill-7" fill="#11082D"></path>
                        <path d="M46.2955676,66.08 L18.5940068,66.08 C17.9757303,66.08 17.474701,65.57852 17.474701,64.96 L17.474701,19.88 C17.474701,19.26148 17.9757303,18.76 18.5940068,18.76 L46.2955676,18.76 C46.9137042,18.76 47.4148734,19.26148 47.4148734,19.88 L47.4148734,64.96 C47.4148734,65.57852 46.9137042,66.08 46.2955676,66.08" id="Fill-9" fill="#DA2554"></path>
                        <path d="M25.5976995,39.62 C25.5976995,38.69222 26.3494533,37.94 27.2766582,37.94 C28.2038632,37.94 28.955617,38.69222 28.955617,39.62 C28.955617,40.54778 28.2038632,41.3 27.2766582,41.3 C26.3494533,41.3 25.5976995,40.54778 25.5976995,39.62" id="Fill-11" fill="#31C1AD" style="mix-blend-mode: multiply;"></path>
                        <path d="M35.6714522,39.62 C35.6714522,38.69222 36.423206,37.94 37.350411,37.94 C38.2776159,37.94 39.0293697,38.69222 39.0293697,39.62 C39.0293697,40.54778 38.2776159,41.3 37.350411,41.3 C36.423206,41.3 35.6714522,40.54778 35.6714522,39.62" id="Fill-13" fill="#231814"></path>
                        <path d="M29.948945,45.36 C29.9584591,46.75328 31.0822422,47.88 32.4673832,47.88 C33.8526641,47.88 34.9764472,46.75328 34.9858214,45.36 L29.948945,45.36 Z" id="Fill-15" fill="#31C1AD" style="mix-blend-mode: multiply;"></path>
                        <path d="M46.2955676,18.76 L32.4533919,18.76 L32.4533919,66.08 L46.2955676,66.08 C46.9137042,66.08 47.4148734,65.57852 47.4148734,64.96 L47.4148734,19.88 C47.4148734,19.26148 46.9137042,18.76 46.2955676,18.76" id="Fill-17" fill="#11082D"></path>
                        <polygon id="Fill-19" fill="#04CEDE" points="32.4534338 23.8 42.5271866 23.8 42.5271866 22.12 32.4534338 22.12"></polygon>
                        <polygon id="Fill-21" fill="#F5993D" points="32.4534338 27.16 38.3297896 27.16 38.3297896 25.48 32.4534338 25.48"></polygon>
                        <polygon id="Fill-22" fill="#FFFFFF" opacity="0.15" points="32.4534338 33.88 34.6920456 33.88 34.6920456 32.2 32.4534338 32.2"></polygon>
                        <polygon id="Fill-23" fill="#FFFFFF" points="32.4534338 37.24 43.6464924 37.24 43.6464924 35.56 32.4534338 35.56"></polygon>
                        <polygon id="Fill-24" fill="#FFFFFF" opacity="0.15" points="32.4534338 40.6 39.7289219 40.6 39.7289219 38.92 32.4534338 38.92"></polygon>
                        <polygon id="Fill-25" fill="#FFFFFF" opacity="0.15" points="32.4534338 43.96 38.0499631 43.96 38.0499631 42.28 32.4534338 42.28"></polygon>
                        <polygon id="Fill-26" fill="#F5993D" points="32.4534338 47.32 36.9306573 47.32 36.9306573 45.64 32.4534338 45.64"></polygon>
                        <polygon id="Fill-27" fill="#04CEDE" points="32.4534338 54.04 39.7289219 54.04 39.7289219 52.36 32.4534338 52.36"></polygon>
                        <polygon id="Fill-28" fill="#FFFFFF" opacity="0.15" points="32.4534338 57.4 42.5271866 57.4 42.5271866 55.72 32.4534338 55.72"></polygon>
                        <polygon id="Fill-29" fill="#FFFFFF" opacity="0.15" points="32.4534338 60.76 41.4078807 60.76 41.4078807 59.08 32.4534338 59.08"></polygon>
                        <polygon id="Fill-30" fill="#F5993D" points="39.4490954 27.16 45.3254512 27.16 45.3254512 25.48 39.4490954 25.48"></polygon>
                        <polyline id="Fill-31" fill="#FFFFFF" points="35.8113654 32.2 41.4078947 32.2 41.4078947 33.88 35.8113654 33.88"></polyline>
                        <polygon id="Fill-32" fill="#F5993D" points="40.8482278 40.6 43.9263189 40.6 43.9263189 38.92 40.8482278 38.92"></polygon>
                        <polygon id="Fill-33" fill="#FFFFFF" opacity="0.15" points="38.0499631 47.32 44.7657983 47.32 44.7657983 45.64 38.0499631 45.64"></polygon>
                        <polygon id="Fill-34" fill="#F5993D" points="40.8482278 54.04 42.6670998 54.04 42.6670998 52.36 40.8482278 52.36"></polygon>
                        <polygon id="Fill-35" fill="#04CEDE" points="42.5271866 60.76 44.3460586 60.76 44.3460586 59.08 42.5271866 59.08"></polygon>
                        <path d="M32.3135346,6.72 C32.0044663,6.72 31.7538817,6.46926 31.7538817,6.16 L31.7538817,0.56 C31.7538817,0.25074 32.0044663,0 32.3135346,0 C32.6226029,0 32.8731875,0.25074 32.8731875,0.56 L32.8731875,6.16 C32.8731875,6.46926 32.6226029,6.72 32.3135346,6.72" id="Fill-36" fill="#231814"></path>
                        <path d="M42.4435744,8.06449 C42.3955842,8.06449 42.3468944,8.05833 42.2983445,8.04517 C41.9997696,7.96523 41.8226395,7.65821 41.9026698,7.35945 L43.3514714,1.94887 C43.4313618,1.65025 43.7384714,1.47189 44.0369063,1.55295 C44.3353412,1.63303 44.5126113,1.94005 44.4325809,2.23881 L42.9836395,7.64925 C42.916761,7.89943 42.6906612,8.06449 42.4435744,8.06449" id="Fill-37" fill="#231814"></path>
                        <path d="M51.8721452,11.994066 C51.7771441,11.994066 51.6810238,11.969846 51.5928784,11.918886 C51.3252244,11.764186 51.2335812,11.421746 51.3880454,11.153926 L54.1867298,6.303346 C54.3410541,6.035386 54.6835617,5.943406 54.9512157,6.098386 C55.2188697,6.252946 55.3105129,6.595386 55.1560487,6.863346 L52.3573643,11.713926 C52.2538285,11.893546 52.0656452,11.994066 51.8721452,11.994066" id="Fill-38" fill="#231814"></path>
                        <path d="M59.9618444,18.226936 C59.8187131,18.226936 59.6753021,18.172196 59.5661697,18.062856 C59.3474854,17.844316 59.3474854,17.489556 59.5661697,17.271016 L63.5234756,13.311256 C63.7418802,13.092436 64.0965602,13.092436 64.3148248,13.311256 C64.5335092,13.529796 64.5335092,13.884416 64.3148248,14.103096 L60.357519,18.062856 C60.2483867,18.172196 60.1049756,18.226936 59.9618444,18.226936" id="Fill-39" fill="#231814"></path>
                        <path d="M22.0422104,8.059842 C21.7951236,8.059842 21.5690239,7.894782 21.5021453,7.644602 L20.0534837,2.235002 C19.9734534,1.936242 20.1505835,1.629082 20.4491584,1.549142 C20.7477332,1.468222 21.0545629,1.646302 21.1345933,1.945062 L22.583115,7.354802 C22.6631453,7.653562 22.4860152,7.960582 22.1874403,8.040522 C22.1388905,8.053682 22.0902007,8.059842 22.0422104,8.059842" id="Fill-40" fill="#231814"></path>
                        <path d="M12.6109113,11.986814 C12.4174113,11.986814 12.229228,11.886294 12.1256922,11.706674 L9.32728764,6.856654 C9.17282343,6.588834 9.26446659,6.246394 9.53212061,6.091834 C9.79977462,5.936994 10.1421423,6.028974 10.2966065,6.296654 L13.0950111,11.146674 C13.2494753,11.414494 13.1578321,11.756934 12.8901781,11.911634 C12.8020328,11.962594 12.7059124,11.986814 12.6109113,11.986814" id="Fill-41" fill="#231814"></path>
                        <path d="M4.5172526,18.218872 C4.37412137,18.218872 4.23085022,18.164132 4.12157798,18.054792 L0.163992299,14.094612 C-0.0546920824,13.875932 -0.0546920824,13.521312 0.163992299,13.302772 C0.382256941,13.083952 0.736657158,13.083952 0.95534154,13.302772 L4.91292722,17.262952 C5.13161161,17.481492 5.13161161,17.836252 4.91292722,18.054792 C4.8037949,18.164132 4.66038384,18.218872 4.5172526,18.218872" id="Fill-42" fill="#231814"></path>
                    </g>
                </g>
            </g>
        </g>
    </g>
</svg>