<?xml version="1.0" encoding="UTF-8"?>
<svg width="120px" height="120px" viewBox="0 0 120 120" version="1.1" xmlns="http://www.w3.org/2000/svg" xmlns:xlink="http://www.w3.org/1999/xlink">
    <!-- Generator: Sketch 42 (36781) - http://www.bohemiancoding.com/sketch -->
    <title>serve_ui</title>
    <desc>Created with Sketch.</desc>
    <defs>
        <polygon id="path-1" points="30.1975664 0 30.1975664 57.3111773 15.1369666 57.3111773 0.0763667466 57.3111773 0.0763667466 0"></polygon>
    </defs>
    <g id="asset" stroke="none" stroke-width="1" fill="none" fill-rule="evenodd">
        <g id="serve_ui">
            <g id="Group-2">
                <rect id="Rectangle-2" x="0" y="0" width="120" height="120"></rect>
                <g id="Group" transform="translate(0.000000, 3.600000)">
                    <path d="M53.25,7.5 C51.1790625,7.5 49.5,5.8209375 49.5,3.75 C49.5,1.6790625 51.1790625,0 53.25,0 L109.125,0 C111.195938,0 112.875,1.6790625 112.875,3.75 C112.875,5.8209375 111.195938,7.5 109.125,7.5 L53.25,7.5 Z" id="Fill-1" fill="#E5E8EC"></path>
                    <path d="M86.4375,15 C84.3665625,15 82.6875,13.3209375 82.6875,11.25 C82.6875,9.1790625 84.3665625,7.5 86.4375,7.5 L57,7.5 C59.0709375,7.5 60.75,9.1790625 60.75,11.25 C60.75,13.3209375 59.0709375,15 57,15 L86.4375,15 Z" id="Fill-3" fill="#E5E8EC"></path>
                    <path d="M13.05,22.5 C10.9790625,22.5 9.3,20.8209375 9.3,18.75 C9.3,16.6790625 10.9790625,15 13.05,15 L98.925,15 C100.995937,15 102.675,16.6790625 102.675,18.75 C102.675,20.8209375 100.995937,22.5 98.925,22.5 L13.05,22.5 Z" id="Fill-1" fill="#E5E8EC"></path>
                    <path d="M94.2375,30 C92.1665625,30 90.4875,28.3209375 90.4875,26.25 C90.4875,24.1790625 92.1665625,22.5 94.2375,22.5 L70.8,22.5 C72.8709375,22.5 74.55,24.1790625 74.55,26.25 C74.55,28.3209375 72.8709375,30 70.8,30 L94.2375,30 Z" id="Fill-3" fill="#E5E8EC"></path>
                    <path d="M64.05,37.5 C61.9790625,37.5 60.3,35.8209375 60.3,33.75 C60.3,31.6790625 61.9790625,30 64.05,30 L113.925,30 C115.995937,30 117.675,31.6790625 117.675,33.75 C117.675,35.8209375 115.995937,37.5 113.925,37.5 L64.05,37.5 Z" id="Fill-1" fill="#E5E8EC"></path>
                    <path d="M23.55,52.5 C21.4790625,52.5 19.8,50.8209375 19.8,48.75 C19.8,46.6790625 21.4790625,45 23.55,45 L100.425,45 C102.495937,45 104.175,46.6790625 104.175,48.75 C104.175,50.8209375 102.495937,52.5 100.425,52.5 L23.55,52.5 Z" id="Fill-1" fill="#E5E8EC"></path>
                    <path d="M94.5375,60 C92.4665625,60 90.7875,58.3209375 90.7875,56.25 C90.7875,54.1790625 92.4665625,52.5 94.5375,52.5 L47.1,52.5 C49.1709375,52.5 50.85,54.1790625 50.85,56.25 C50.85,58.3209375 49.1709375,60 47.1,60 L94.5375,60 Z" id="Fill-3" fill="#E5E8EC"></path>
                    <path d="M16.05,67.5 C13.9790625,67.5 12.3,65.8209375 12.3,63.75 C12.3,61.6790625 13.9790625,60 16.05,60 L113.925,60 C115.995937,60 117.675,61.6790625 117.675,63.75 C117.675,65.8209375 115.995937,67.5 113.925,67.5 L16.05,67.5 Z" id="Fill-1" fill="#E5E8EC"></path>
                    <path d="M3.75,82.5 C1.6790625,82.5 0,80.8209375 0,78.75 C0,76.6790625 1.6790625,75 3.75,75 L86.625,75 C88.6959375,75 90.375,76.6790625 90.375,78.75 C90.375,80.8209375 88.6959375,82.5 86.625,82.5 L3.75,82.5 Z" id="Fill-1" fill="#E5E8EC"></path>
                    <path d="M61.5375,75 C59.4665625,75 57.7875,73.3209375 57.7875,71.25 C57.7875,69.1790625 59.4665625,67.5 61.5375,67.5 L20.1,67.5 C22.1709375,67.5 23.85,69.1790625 23.85,71.25 C23.85,73.3209375 22.1709375,75 20.1,75 L61.5375,75 Z" id="Fill-3" fill="#E5E8EC"></path>
                    <path d="M50.85,97.5 C48.7790625,97.5 47.1,95.8209375 47.1,93.75 C47.1,91.6790625 48.7790625,90 50.85,90 L103.725,90 C105.795937,90 107.475,91.6790625 107.475,93.75 C107.475,95.8209375 105.795937,97.5 103.725,97.5 L50.85,97.5 Z" id="Fill-1" fill="#E5E8EC"></path>
                    <path d="M98.1375,105 C96.0665625,105 94.3875,103.320937 94.3875,101.25 C94.3875,99.1790625 96.0665625,97.5 98.1375,97.5 L77.7,97.5 C79.7709375,97.5 81.45,99.1790625 81.45,101.25 C81.45,103.320937 79.7709375,105 77.7,105 L98.1375,105 Z" id="Fill-3" fill="#E5E8EC"></path>
                    <path d="M61.05,112.5 C58.9790625,112.5 57.3,110.820937 57.3,108.75 C57.3,106.679063 58.9790625,105 61.05,105 L98.925,105 C100.995937,105 102.675,106.679063 102.675,108.75 C102.675,110.820937 100.995937,112.5 98.925,112.5 L61.05,112.5 Z" id="Fill-1" fill="#E5E8EC"></path>
                    <path d="M37.05,112.5 C34.9790625,112.5 33.3,110.820937 33.3,108.75 C33.3,106.679063 34.9790625,105 37.05,105 L47.925,105 C49.9959375,105 51.675,106.679063 51.675,108.75 C51.675,110.820937 49.9959375,112.5 47.925,112.5 L37.05,112.5 Z" id="Fill-1" fill="#E5E8EC"></path>
                    <g id="Page-1" transform="translate(30.000000, 13.800000)">
                        <g id="Group-3" transform="translate(32.227589, 26.390533)">
                            <mask id="mask-2" fill="white">
                                <use xlink:href="#path-1"></use>
                            </mask>
                            <g id="Clip-2"></g>
                            <path d="M26.4060959,57.3111773 L3.86784775,57.3111773 C1.77379173,57.3111773 0.0763667466,55.613123 0.0763667466,53.5185259 L0.0763667466,3.79265144 C0.0763667466,1.69805433 1.77379173,0 3.86784775,0 L26.4060959,0 C28.5000466,0 30.1975769,1.69805433 30.1975769,3.79265144 L30.1975769,53.5185259 C30.1975769,55.613123 28.5000466,57.3111773 26.4060959,57.3111773" id="Fill-1" fill="#031D49" mask="url(#mask-2)"></path>
                        </g>
                        <polygon id="Fill-4" fill="#04CEDE" points="33.9890474 76.2744345 60.7400523 76.2744345 60.7400523 33.7124572 33.9890474 33.7124572"></polygon>
                        <path d="M45.258182,79.7510317 C45.258182,78.5873198 46.2012076,77.6440031 47.3645604,77.6440031 C48.5278078,77.6440031 49.4709387,78.5873198 49.4709387,79.7510317 C49.4709387,80.9147436 48.5278078,81.8580602 47.3645604,81.8580602 C46.2012076,81.8580602 45.258182,80.9147436 45.258182,79.7510317" id="Fill-7" fill="#656570"></path>
                        <path d="M47.6032762,74.5888117 L26.7510786,74.5888117 C26.2856743,74.5888117 25.9085272,74.2114428 25.9085272,73.7460002 L25.9085272,39.8228401 C25.9085272,39.3573975 26.2856743,38.9800287 26.7510786,38.9800287 L47.6032762,38.9800287 C48.0685752,38.9800287 48.4458276,39.3573975 48.4458276,39.8228401 L48.4458276,73.7460002 C48.4458276,74.2114428 48.0685752,74.5888117 47.6032762,74.5888117" id="Fill-8" fill="#DA2554"></path>
                        <path d="M21.6948227,74.5888117 L0.842625057,74.5888117 C0.377220764,74.5888117 7.37232417e-05,74.2114428 7.37232417e-05,73.7460002 L7.37232417e-05,39.8228401 C7.37232417e-05,39.3573975 0.377220764,38.9800287 0.842625057,38.9800287 L21.6948227,38.9800287 C22.1601217,38.9800287 22.537374,39.3573975 22.537374,39.8228401 L22.537374,73.7460002 C22.537374,74.2114428 22.1601217,74.5888117 21.6948227,74.5888117" id="Fill-9" fill="#DA2554"></path>
                        <path d="M21.6958443,35.608783 L0.843541332,35.608783 C0.378242358,35.608783 0.000989997818,35.2314141 0.000989997818,34.7659715 L0.000989997818,0.842811431 C0.000989997818,0.377368818 0.378242358,0 0.843541332,0 L21.6958443,0 C22.1611433,0 22.5383956,0.377368818 22.5383956,0.842811431 L22.5383956,34.7659715 C22.5383956,35.2314141 22.1611433,35.608783 21.6958443,35.608783" id="Fill-10" fill="#DA2554"></path>
                        <path d="M35.2631641,55.6462349 C35.0305146,55.6462349 34.8418884,55.4575505 34.8418884,55.2248292 C34.8418884,54.4115162 34.1804856,53.7499092 33.3674236,53.7499092 C32.5543615,53.7499092 31.8929587,54.4115162 31.8929587,55.2248292 C31.8929587,55.4575505 31.7043326,55.6462349 31.4716831,55.6462349 C31.2390336,55.6462349 31.0504074,55.4575505 31.0504074,55.2248292 C31.0504074,53.946811 32.0897998,52.9070978 33.3674236,52.9070978 C34.6450474,52.9070978 35.6844397,53.946811 35.6844397,55.2248292 C35.6844397,55.4575505 35.4958136,55.6462349 35.2631641,55.6462349" id="Fill-11" fill="#04CEDE" style="mix-blend-mode: multiply;"></path>
                        <path d="M42.8461261,55.6462349 C42.6134766,55.6462349 42.4248504,55.4575505 42.4248504,55.2248292 C42.4248504,54.4115162 41.7634476,53.7499092 40.9503856,53.7499092 C40.1373235,53.7499092 39.4759207,54.4115162 39.4759207,55.2248292 C39.4759207,55.4575505 39.2872946,55.6462349 39.0546451,55.6462349 C38.8219956,55.6462349 38.6333694,55.4575505 38.6333694,55.2248292 C38.6333694,53.946811 39.6727618,52.9070978 40.9503856,52.9070978 C42.2280094,52.9070978 43.2674018,53.946811 43.2674018,55.2248292 C43.2674018,55.4575505 43.0787756,55.6462349 42.8461261,55.6462349" id="Fill-12" fill="#04CEDE" style="mix-blend-mode: multiply;"></path>
                        <path d="M35.2984459,58.9968002 C35.3056076,60.0452576 36.1515291,60.8931259 37.1941864,60.8931259 C38.236949,60.8931259 39.0828705,60.0452576 39.0899269,58.9968002 L35.2984459,58.9968002 Z" id="Fill-13" fill="#04CEDE" style="mix-blend-mode: multiply;"></path>
                        <path d="M5.21981615,18.2785783 C5.07352818,18.2785783 4.93145296,18.2021985 4.85362228,18.0660844 C4.73819275,17.8640204 4.80844046,17.6066468 5.01044215,17.4911817 L7.31924344,16.1714443 L5.01044215,14.851707 C4.80844046,14.7362418 4.73819275,14.4788683 4.85362228,14.2768042 C4.96915713,14.0747402 5.22645124,14.0044708 5.42834761,14.119936 L9.01751097,16.1714443 L5.42834761,18.2229527 C5.36241797,18.2606685 5.29069578,18.2785783 5.21981615,18.2785783" id="Fill-14" fill="#04CEDE" style="mix-blend-mode: multiply;"></path>
                        <path d="M17.2253512,18.2785783 C17.1544715,18.2785783 17.0827494,18.2606685 17.0168197,18.2229527 L13.4276564,16.1714443 L17.0168197,14.119936 C17.2188214,14.0044708 17.4761155,14.0747402 17.5915451,14.2768042 C17.7069746,14.4788683 17.6367269,14.7362418 17.4347252,14.851707 L15.1259239,16.1714443 L17.4347252,17.4911817 C17.6367269,17.6066468 17.7069746,17.8640204 17.5915451,18.0660844 C17.5137144,18.2021985 17.3716392,18.2785783 17.2253512,18.2785783" id="Fill-15" fill="#04CEDE" style="mix-blend-mode: multiply;"></path>
                        <path d="M9.37950262,21.3863401 C9.37950262,20.3390415 10.2282678,19.4900143 11.2752431,19.4900143 C12.3222185,19.4900143 13.1709836,20.3390415 13.1709836,21.3863401 C13.1709836,22.4336386 12.3222185,23.2826658 11.2752431,23.2826658 C10.2282678,23.2826658 9.37950262,22.4336386 9.37950262,21.3863401" id="Fill-16" fill="#04CEDE" style="mix-blend-mode: multiply;"></path>
                        <path d="M6.1146162,54.6773916 C6.1146162,53.9792277 6.68049474,53.4131744 7.3784432,53.4131744 C8.07639166,53.4131744 8.6422702,53.9792277 8.6422702,54.6773916 C8.6422702,55.3755555 8.07639166,55.9416087 7.3784432,55.9416087 C6.68049474,55.9416087 6.1146162,55.3755555 6.1146162,54.6773916" id="Fill-17" fill="#04CEDE" style="mix-blend-mode: multiply;"></path>
                        <path d="M13.6975782,54.6773916 C13.6975782,53.9792277 14.2634567,53.4131744 14.9614052,53.4131744 C15.6593537,53.4131744 16.2252322,53.9792277 16.2252322,54.6773916 C16.2252322,55.3755555 15.6593537,55.9416087 14.9614052,55.9416087 C14.2634567,55.9416087 13.6975782,55.3755555 13.6975782,54.6773916" id="Fill-18" fill="#04CEDE" style="mix-blend-mode: multiply;"></path>
                        <path d="M9.38999239,58.9968002 C9.39715407,60.0452576 10.2430756,60.8931259 11.2857329,60.8931259 C12.3284955,60.8931259 13.174417,60.0452576 13.1814734,58.9968002 L9.38999239,58.9968002 Z" id="Fill-19" fill="#04CEDE" style="mix-blend-mode: multiply;"></path>
                    </g>
                </g>
            </g>
        </g>
    </g>
</svg>