<?xml version="1.0" encoding="UTF-8"?>
<svg width="169px" height="169px" viewBox="0 0 169 169" version="1.1" xmlns="http://www.w3.org/2000/svg" xmlns:xlink="http://www.w3.org/1999/xlink">
    <!-- Generator: Sketch 42 (36781) - http://www.bohemiancoding.com/sketch -->
    <title>sky_layer04_plant04</title>
    <desc>Created with Sketch.</desc>
    <defs>
        <filter x="-50%" y="-50%" width="200%" height="200%" filterUnits="objectBoundingBox" id="filter-1">
            <feGaussianBlur stdDeviation="24" in="SourceGraphic"></feGaussianBlur>
        </filter>
    </defs>
    <g id="Page-1" stroke="none" stroke-width="1" fill="none" fill-rule="evenodd">
        <g id="sky_layer04_plant04" transform="translate(-30.000000, -29.000000)">
            <g id="Page-1" transform="translate(114.874608, 113.351648) rotate(-45.000000) translate(-114.874608, -113.351648) translate(92.374608, 90.851648)">
                <path d="M5.68434189e-14,22.3400129 C5.68434189e-14,10.0019961 10.0019961,5.68434189e-14 22.3400129,5.68434189e-14 C34.6780297,5.68434189e-14 44.6800259,10.0019961 44.6800259,22.3400129 C44.6800259,34.6780297 34.6780297,44.6800259 22.3400129,44.6800259 C10.0019961,44.6800259 5.68434189e-14,34.6780297 5.68434189e-14,22.3400129" id="Fill-1" fill="#8900FF"></path>
                <path d="M44.6800259,22.3400129 C44.6800259,10.0019961 34.6780297,3.69482223e-13 22.3400129,3.69482223e-13 C21.0537246,3.69482223e-13 19.7931273,0.11021073 18.5664124,0.31896574 C18.2196458,0.591638009 17.9961215,1.01398836 17.9961215,1.4893342 C17.9961215,2.311819 18.6629709,2.97866839 19.4854557,2.97866839 L20.2301228,2.97866839 C21.0526076,2.97866839 21.719457,3.64551778 21.719457,4.46800259 C21.719457,5.29048739 21.0526076,5.95733678 20.2301228,5.95733678 L11.4182288,5.95733678 C10.595744,5.95733678 9.92889463,6.62418617 9.92889463,7.44667098 C9.92889463,8.26915579 10.595744,8.93600517 11.4182288,8.93600517 L23.08468,8.93600517 C23.9071648,8.93600517 24.5740142,9.60285456 24.5740142,10.4253394 C24.5740142,11.2478242 23.9071648,11.9146736 23.08468,11.9146736 L17.9961215,11.9146736 C17.1736367,11.9146736 16.5067873,12.5815229 16.5067873,13.4040078 C16.5067873,14.2264926 17.1736367,14.893342 17.9961215,14.893342 L19.6095669,14.893342 C20.4320517,14.893342 21.0989011,15.5601913 21.0989011,16.3826761 C21.0989011,17.205161 20.4320517,17.8720103 19.6095669,17.8720103 L10.6735617,17.8720103 C9.85107692,17.8720103 9.18422754,18.5388597 9.18422754,19.3613445 C9.18422754,20.1838293 9.85107692,20.8506787 10.6735617,20.8506787 L25.3186813,20.8506787 C26.1411661,20.8506787 26.8080155,21.5175281 26.8080155,22.3400129 C26.8080155,23.1624977 26.1411661,23.8293471 25.3186813,23.8293471 L15.3897867,23.8293471 C14.5673019,23.8293471 13.9004525,24.4961965 13.9004525,25.3186813 C13.9004525,26.1411661 14.5673019,26.8080155 15.3897867,26.8080155 L16.5067873,26.8080155 C17.3292721,26.8080155 17.9961215,27.4748649 17.9961215,28.2973497 C17.9961215,29.1198345 17.3292721,29.7866839 16.5067873,29.7866839 L11.4182288,29.7866839 C10.595744,29.7866839 9.92889463,30.4535333 9.92889463,31.2760181 C9.92889463,32.0985029 10.595744,32.7653523 11.4182288,32.7653523 L19.2372334,32.7653523 C20.0597182,32.7653523 20.7265676,33.4322017 20.7265676,34.2546865 C20.7265676,35.0771713 20.0597182,35.7440207 19.2372334,35.7440207 L14.1486749,35.7440207 C13.32619,35.7440207 12.6593407,36.4108701 12.6593407,37.2333549 C12.6593407,38.0558397 13.32619,38.7226891 14.1486749,38.7226891 L23.2087912,38.7226891 C24.031276,38.7226891 24.6981254,39.3895385 24.6981254,40.2120233 C24.6981254,41.0345081 24.031276,41.7013575 23.2087912,41.7013575 L20.2301228,41.7013575 C19.407638,41.7013575 18.7407886,42.3682069 18.7407886,43.1906917 C18.7407886,43.7596173 19.0600026,44.2535798 19.5288946,44.5044085 C20.4497996,44.6200802 21.3878319,44.6800259 22.3400129,44.6800259 C34.6780297,44.6800259 44.6800259,34.6780297 44.6800259,22.3400129" id="Fill-3" fill="#FFFFFF" opacity="0.5"></path>
                <path d="M44.6800259,22.3400129 C44.6800259,12.7035242 38.578596,4.49220427 30.0282043,1.35827279 C30.0321758,1.40146348 30.0349063,1.44515061 30.0349063,1.4893342 C30.0349063,2.311819 29.3680569,2.97866839 28.5455721,2.97866839 L28.0491273,2.97866839 C27.2266425,2.97866839 26.5597931,3.64551778 26.5597931,4.46800259 C26.5597931,5.29048739 27.2266425,5.95733678 28.0491273,5.95733678 L33.5100194,5.95733678 C34.3325042,5.95733678 34.9993536,6.62418617 34.9993536,7.44667098 C34.9993536,8.26915579 34.3325042,8.93600517 33.5100194,8.93600517 L29.4143504,8.93600517 C28.5918655,8.93600517 27.9250162,9.60285456 27.9250162,10.4253394 C27.9250162,11.2478242 28.5918655,11.9146736 29.4143504,11.9146736 L30.9036846,11.9146736 C31.7261694,11.9146736 32.3930187,12.5815229 32.3930187,13.4040078 C32.3930187,14.2264926 31.7261694,14.893342 30.9036846,14.893342 L26.8080155,14.893342 C25.9855307,14.893342 25.3186813,15.5601913 25.3186813,16.3826761 C25.3186813,17.205161 25.9855307,17.8720103 26.8080155,17.8720103 L35.8681319,17.8720103 C36.6906167,17.8720103 37.3574661,18.5388597 37.3574661,19.3613445 C37.3574661,20.1838293 36.6906167,20.8506787 35.8681319,20.8506787 L34.9993536,20.8506787 C34.1768688,20.8506787 33.5100194,21.5175281 33.5100194,22.3400129 C33.5100194,23.1624977 34.1768688,23.8293471 34.9993536,23.8293471 L35.8681319,23.8293471 C36.6906167,23.8293471 37.3574661,24.4961965 37.3574661,25.3186813 C37.3574661,26.1411661 36.6906167,26.8080155 35.8681319,26.8080155 L30.9036846,26.8080155 C30.0811997,26.8080155 29.4143504,27.4748649 29.4143504,28.2973497 C29.4143504,29.1198345 30.0811997,29.7866839 30.9036846,29.7866839 L37.8539108,29.7866839 C38.6763956,29.7866839 39.343245,30.4535333 39.343245,31.2760181 C39.343245,32.0985029 38.6763956,32.7653523 37.8539108,32.7653523 L25.5669037,32.7653523 C24.7444189,32.7653523 24.0775695,33.4322017 24.0775695,34.2546865 C24.0775695,35.0771713 24.7444189,35.7440207 25.5669037,35.7440207 L34.7511312,35.7440207 C35.573616,35.7440207 36.2404654,36.4108701 36.2404654,37.2333549 C36.2404654,38.0558397 35.573616,38.7226891 34.7511312,38.7226891 L29.6625727,38.7226891 C28.8400879,38.7226891 28.1732385,39.3895385 28.1732385,40.2120233 C28.1732385,41.0345081 28.8400879,41.7013575 29.6625727,41.7013575 L31.0277957,41.7013575 C31.5422366,41.7013575 31.9957388,41.9622392 32.2633226,42.3587744 C39.6217505,38.7041965 44.6800259,31.1134324 44.6800259,22.3400129" id="Fill-5" fill="#FFFFFF" opacity="0.5"></path>
            </g>
            <g id="Group-60">
                <rect id="Rectangle-21" x="0" y="0" width="228" height="228"></rect>
                <path d="M86,113.274079 C86,97.6587763 98.6587763,85 114.274079,85 C129.889381,85 142.548158,97.6587763 142.548158,113.274079 C142.548158,128.889381 129.889381,141.548158 114.274079,141.548158 C98.6587763,141.548158 86,128.889381 86,113.274079" id="Fill-1" fill="#8900FF" opacity="0.5" filter="url(#filter-1)"></path>
            </g>
        </g>
    </g>
</svg>