<?xml version="1.0" encoding="UTF-8"?>
<svg width="496px" height="496px" viewBox="0 0 496 496" version="1.1" xmlns="http://www.w3.org/2000/svg" xmlns:xlink="http://www.w3.org/1999/xlink">
    <!-- Generator: Sketch 42 (36781) - http://www.bohemiancoding.com/sketch -->
    <title>sky_layer03_plant03</title>
    <desc>Created with Sketch.</desc>
    <defs>
        <filter x="-50%" y="-50%" width="200%" height="200%" filterUnits="objectBoundingBox" id="filter-1">
            <feGaussianBlur stdDeviation="50" in="SourceGraphic"></feGaussianBlur>
        </filter>
    </defs>
    <g id="Page-1" stroke="none" stroke-width="1" fill="none" fill-rule="evenodd">
        <g id="sky_layer03_plant03" transform="translate(17.000000, 17.000000)">
            <g id="Page-1" transform="translate(232.610187, 232.944598) rotate(-45.000000) translate(-232.610187, -232.944598) translate(119.237611, 119.572022)">
                <path d="M-3.33266194e-13,112.980284 C-3.33266194e-13,50.5831559 50.5831559,-3.06419094e-13 112.980284,-3.06419094e-13 C175.377411,-3.06419094e-13 225.960567,50.5831559 225.960567,112.980284 C225.960567,175.377411 175.377411,225.960567 112.980284,225.960567 C50.5831559,225.960567 -3.33266194e-13,175.377411 -3.33266194e-13,112.980284" id="Fill-1" fill="#0C9CFB"></path>
                <path d="M225.960567,112.980284 C225.960567,50.5831559 175.377411,-4.26325641e-14 112.980284,-4.26325641e-14 C106.47513,-4.26325641e-14 100.099904,0.557369399 93.8960306,1.61310738 C92.1423256,2.99209451 91.0118951,5.12804954 91.0118951,7.5320189 C91.0118951,11.6915763 94.3843565,15.0640378 98.543914,15.0640378 L102.309923,15.0640378 C106.469481,15.0640378 109.841942,18.4364993 109.841942,22.5960567 C109.841942,26.7556141 106.469481,30.1280756 102.309923,30.1280756 L57.7454782,30.1280756 C53.5859208,30.1280756 50.2134593,33.5005371 50.2134593,37.6600945 C50.2134593,41.8196519 53.5859208,45.1921134 57.7454782,45.1921134 L116.746293,45.1921134 C120.90585,45.1921134 124.278312,48.5645749 124.278312,52.7241323 C124.278312,56.8836898 120.90585,60.2561512 116.746293,60.2561512 L91.0118951,60.2561512 C86.8523376,60.2561512 83.4798762,63.6286127 83.4798762,67.7881701 C83.4798762,71.9477276 86.8523376,75.320189 91.0118951,75.320189 L99.1715822,75.320189 C103.33114,75.320189 106.703601,78.6926505 106.703601,82.8522079 C106.703601,87.0117654 103.33114,90.3842268 99.1715822,90.3842268 L53.9794688,90.3842268 C49.8199114,90.3842268 46.4474499,93.7566883 46.4474499,97.9162457 C46.4474499,102.075803 49.8199114,105.448265 53.9794688,105.448265 L128.044321,105.448265 C132.203879,105.448265 135.57634,108.820726 135.57634,112.980284 C135.57634,117.139841 132.203879,120.512302 128.044321,120.512302 L77.830862,120.512302 C73.6713045,120.512302 70.2988431,123.884764 70.2988431,128.044321 C70.2988431,132.203879 73.6713045,135.57634 77.830862,135.57634 L83.4798762,135.57634 C87.6394336,135.57634 91.0118951,138.948802 91.0118951,143.108359 C91.0118951,147.267917 87.6394336,150.640378 83.4798762,150.640378 L57.7454782,150.640378 C53.5859208,150.640378 50.2134593,154.012839 50.2134593,158.172397 C50.2134593,162.331954 53.5859208,165.704416 57.7454782,165.704416 L97.2885775,165.704416 C101.448135,165.704416 104.820596,169.076877 104.820596,173.236435 C104.820596,177.395992 101.448135,180.768454 97.2885775,180.768454 L71.5541796,180.768454 C67.3946221,180.768454 64.0221607,184.140915 64.0221607,188.300473 C64.0221607,192.46003 67.3946221,195.832491 71.5541796,195.832491 L117.373961,195.832491 C121.533519,195.832491 124.90598,199.204953 124.90598,203.36451 C124.90598,207.524068 121.533519,210.896529 117.373961,210.896529 L102.309923,210.896529 C98.150366,210.896529 94.7779045,214.268991 94.7779045,218.428548 C94.7779045,221.305779 96.3922672,223.803899 98.7635978,225.072416 C103.420896,225.657403 108.164813,225.960567 112.980284,225.960567 C175.377411,225.960567 225.960567,175.377411 225.960567,112.980284" id="Fill-3" fill="#FFFFFF" opacity="0.5"></path>
                <path d="M225.960567,112.980284 C225.960567,64.2456106 195.103769,22.718452 151.86182,6.86920124 C151.881906,7.08762979 151.895715,7.30856901 151.895715,7.5320189 C151.895715,11.6915763 148.523253,15.0640378 144.363696,15.0640378 L141.853023,15.0640378 C137.693465,15.0640378 134.321004,18.4364993 134.321004,22.5960567 C134.321004,26.7556141 137.693465,30.1280756 141.853023,30.1280756 L169.470425,30.1280756 C173.629983,30.1280756 177.002444,33.5005371 177.002444,37.6600945 C177.002444,41.8196519 173.629983,45.1921134 169.470425,45.1921134 L148.757373,45.1921134 C144.597816,45.1921134 141.225354,48.5645749 141.225354,52.7241323 C141.225354,56.8836898 144.597816,60.2561512 148.757373,60.2561512 L156.289392,60.2561512 C160.44895,60.2561512 163.821411,63.6286127 163.821411,67.7881701 C163.821411,71.9477276 160.44895,75.320189 156.289392,75.320189 L135.57634,75.320189 C131.416783,75.320189 128.044321,78.6926505 128.044321,82.8522079 C128.044321,87.0117654 131.416783,90.3842268 135.57634,90.3842268 L181.396122,90.3842268 C185.555679,90.3842268 188.928141,93.7566883 188.928141,97.9162457 C188.928141,102.075803 185.555679,105.448265 181.396122,105.448265 L177.002444,105.448265 C172.842887,105.448265 169.470425,108.820726 169.470425,112.980284 C169.470425,117.139841 172.842887,120.512302 177.002444,120.512302 L181.396122,120.512302 C185.555679,120.512302 188.928141,123.884764 188.928141,128.044321 C188.928141,132.203879 185.555679,135.57634 181.396122,135.57634 L156.289392,135.57634 C152.129835,135.57634 148.757373,138.948802 148.757373,143.108359 C148.757373,147.267917 152.129835,150.640378 156.289392,150.640378 L191.438814,150.640378 C195.598371,150.640378 198.970833,154.012839 198.970833,158.172397 C198.970833,162.331954 195.598371,165.704416 191.438814,165.704416 L129.299658,165.704416 C125.1401,165.704416 121.767639,169.076877 121.767639,173.236435 C121.767639,177.395992 125.1401,180.768454 129.299658,180.768454 L175.747108,180.768454 C179.906665,180.768454 183.279127,184.140915 183.279127,188.300473 C183.279127,192.46003 179.906665,195.832491 175.747108,195.832491 L150.01271,195.832491 C145.853152,195.832491 142.480691,199.204953 142.480691,203.36451 C142.480691,207.524068 145.853152,210.896529 150.01271,210.896529 L156.91706,210.896529 C159.518745,210.896529 161.812245,212.215888 163.165498,214.221288 C200.37932,195.738969 225.960567,157.350152 225.960567,112.980284" id="Fill-5" fill="#FFFFFF" opacity="0.5"></path>
            </g>
            <path d="M105,232.058824 C105,161.886353 161.886353,105 232.058824,105 C302.231294,105 359.117647,161.886353 359.117647,232.058824 C359.117647,302.231294 302.231294,359.117647 232.058824,359.117647 C161.886353,359.117647 105,302.231294 105,232.058824" id="Fill-1" fill="#0C9CFB" opacity="0.5" filter="url(#filter-1)"></path>
        </g>
    </g>
</svg>