<?xml version="1.0" encoding="UTF-8"?>
<svg width="48px" height="48px" viewBox="0 0 48 48" version="1.1" xmlns="http://www.w3.org/2000/svg" xmlns:xlink="http://www.w3.org/1999/xlink">
    <!-- Generator: Sketch 42 (36781) - http://www.bohemiancoding.com/sketch -->
    <title>icon-twitter</title>
    <desc>Created with Sketch.</desc>
    <defs></defs>
    <g id="asset" stroke="none" stroke-width="1" fill="none" fill-rule="evenodd">
        <g id="icon-twitter" fill="#231815">
            <path d="M41,13.2435894 C39.7276113,13.7999858 38.3795187,14.1639708 37,14.3235894 C38.4501921,13.4550472 39.5371083,12.091074 40.06,10.4835894 C38.6949971,11.2951699 37.1994577,11.8636102 35.64,12.1635894 C33.6722429,10.104835 30.653372,9.44344779 28.0050935,10.4909012 C25.356815,11.5383547 23.6071163,14.0858179 23.58,16.9335894 C23.5818552,17.47133 23.6388195,18.0074646 23.75,18.5335894 C18.1399048,18.25222 12.9130079,15.6024232 9.37,11.2435894 C7.52348755,14.4343522 8.46814808,18.5103874 11.53,20.5635894 C10.4252425,20.5231086 9.34578049,20.2215446 8.38,19.6835894 L8.38,19.7735894 C8.39548836,23.0953314 10.7434053,25.9487607 14,26.6035894 C13.4024667,26.7599563 12.7876468,26.8405884 12.17,26.8435894 C11.7188698,26.8549843 11.2675324,26.8315817 10.82,26.7735894 C11.7434089,29.6074818 14.3600172,31.5458589 17.34,31.6035894 C14.874375,33.5447674 11.8280684,34.6012899 8.69,34.6035894 C8.12420953,34.5868252 7.55989832,34.5367384 7,34.4535894 C10.1906554,36.5059373 13.9062778,37.5928437 17.7,37.5835894 C30.51,37.5835894 37.53,26.9735894 37.53,17.7535894 L37.53,16.8435894 C38.8799326,15.8461798 40.0528918,14.6292769 41,13.2435894 L41,13.2435894 Z" id="Shape"></path>
        </g>
    </g>
</svg>