<svg id="圖層_1" data-name="圖層 1" xmlns="http://www.w3.org/2000/svg" viewBox="0 0 48 48"><defs><style>.cls-1{fill:#231815;fill-rule:evenodd;}</style></defs><title>icon-linkedln</title><path class="cls-1" d="M25.92,21.58V18.65H19.06s.08,1.94,0,20.65h6.85V27.77a5.17,5.17,0,0,1,.23-1.69,3.76,3.76,0,0,1,3.52-2.5c2.48,0,3.48,1.9,3.48,4.67v11H40V27.46c0-6.33-3.38-9.29-7.9-9.29A6.78,6.78,0,0,0,25.92,21.58ZM15.71,12.27a3.55,3.55,0,0,0-3.83-3.56A3.58,3.58,0,0,0,8,12.27a3.54,3.54,0,0,0,3.79,3.56h0A3.56,3.56,0,0,0,15.71,12.27Zm-.44,6.37H8.4V39.29h6.87Z"/></svg>