<?xml version="1.0" encoding="UTF-8"?>
<svg width="271px" height="72px" viewBox="0 0 271 72" version="1.1" xmlns="http://www.w3.org/2000/svg" xmlns:xlink="http://www.w3.org/1999/xlink">
    <!-- Generator: Sketch 42 (36781) - http://www.bohemiancoding.com/sketch -->
    <title>other_bannerimg</title>
    <desc>Created with Sketch.</desc>
    <defs>
        <circle id="path-1" cx="24" cy="33" r="24"></circle>
        <filter x="-50%" y="-50%" width="200%" height="200%" filterUnits="objectBoundingBox" id="filter-2">
            <feOffset dx="0" dy="2" in="SourceAlpha" result="shadowOffsetOuter1"></feOffset>
            <feGaussianBlur stdDeviation="6" in="shadowOffsetOuter1" result="shadowBlurOuter1"></feGaussianBlur>
            <feColorMatrix values="0 0 0 0 0.4   0 0 0 0 0.854901961   0 0 0 0 0.474509804  0 0 0 0.5 0" type="matrix" in="shadowBlurOuter1"></feColorMatrix>
        </filter>
        <circle id="path-3" cx="24" cy="24" r="24"></circle>
        <filter x="-50%" y="-50%" width="200%" height="200%" filterUnits="objectBoundingBox" id="filter-4">
            <feOffset dx="0" dy="2" in="SourceAlpha" result="shadowOffsetOuter1"></feOffset>
            <feGaussianBlur stdDeviation="6" in="shadowOffsetOuter1" result="shadowBlurOuter1"></feGaussianBlur>
            <feColorMatrix values="0 0 0 0 0.917647059   0 0 0 0 0.850980392   0 0 0 0 0.349019608  0 0 0 0.5 0" type="matrix" in="shadowBlurOuter1"></feColorMatrix>
        </filter>
        <rect id="path-5" x="60" y="9" width="48" height="48"></rect>
        <filter x="-50%" y="-50%" width="200%" height="200%" filterUnits="objectBoundingBox" id="filter-6">
            <feOffset dx="0" dy="2" in="SourceAlpha" result="shadowOffsetOuter1"></feOffset>
            <feGaussianBlur stdDeviation="6" in="shadowOffsetOuter1" result="shadowBlurOuter1"></feGaussianBlur>
            <feColorMatrix values="0 0 0 0 0.207843137   0 0 0 0 0.741176471   0 0 0 0 0.980392157  0 0 0 0.5 0" type="matrix" in="shadowBlurOuter1"></feColorMatrix>
        </filter>
        <polygon id="path-7" points="144 9 168 57 120 57"></polygon>
        <filter x="-50%" y="-50%" width="200%" height="200%" filterUnits="objectBoundingBox" id="filter-8">
            <feOffset dx="0" dy="2" in="SourceAlpha" result="shadowOffsetOuter1"></feOffset>
            <feGaussianBlur stdDeviation="6" in="shadowOffsetOuter1" result="shadowBlurOuter1"></feGaussianBlur>
            <feColorMatrix values="0 0 0 0 0.952941176   0 0 0 0 0.392156863   0 0 0 0 0.407843137  0 0 0 0.5 0" type="matrix" in="shadowBlurOuter1"></feColorMatrix>
        </filter>
    </defs>
    <g id="asset" stroke="none" stroke-width="1" fill="none" fill-rule="evenodd">
        <g id="other_bannerimg" transform="translate(-34.000000, -26.000000)">
            <rect id="Rectangle-35" x="0" y="0" width="320" height="120"></rect>
            <g id="Group-4" transform="translate(46.000000, 21.000000)">
                <g id="Group-85" transform="translate(11.000000, 0.000000)"></g>
                <g id="Group-8" transform="translate(0.000000, 6.000000)">
                    <g id="Oval-14">
                        <use fill="black" fill-opacity="1" filter="url(#filter-2)" xlink:href="#path-1"></use>
                        <use fill="#66DA79" fill-rule="evenodd" xlink:href="#path-1"></use>
                    </g>
                    <path d="M19.9302021,31.1637507 C19.4649031,31.1637507 19.0876507,30.7863819 19.0876507,30.3209393 C19.0876507,28.6943133 17.7648452,27.3710993 16.1387211,27.3710993 C14.512597,27.3710993 13.1897914,28.6943133 13.1897914,30.3209393 C13.1897914,30.7863819 12.812539,31.1637507 12.3472401,31.1637507 C11.8819411,31.1637507 11.5046887,30.7863819 11.5046887,30.3209393 C11.5046887,27.764903 13.5834735,25.6854764 16.1387211,25.6854764 C18.6939686,25.6854764 20.7727534,27.764903 20.7727534,30.3209393 C20.7727534,30.7863819 20.3955011,31.1637507 19.9302021,31.1637507" id="Fill-11" fill="#2FBB80" style="mix-blend-mode: multiply;"></path>
                    <path d="M35.0961261,31.1637507 C34.6308271,31.1637507 34.2535748,30.7863819 34.2535748,30.3209393 C34.2535748,28.6943133 32.9307692,27.3710993 31.3046451,27.3710993 C29.678521,27.3710993 28.3557154,28.6943133 28.3557154,30.3209393 C28.3557154,30.7863819 27.9784631,31.1637507 27.5131641,31.1637507 C27.0478651,31.1637507 26.6706128,30.7863819 26.6706128,30.3209393 C26.6706128,27.764903 28.7493975,25.6854764 31.3046451,25.6854764 C33.8598927,25.6854764 35.9386774,27.764903 35.9386774,30.3209393 C35.9386774,30.7863819 35.5614251,31.1637507 35.0961261,31.1637507" id="Fill-12" fill="#2FBB80" style="mix-blend-mode: multiply;"></path>
                    <path d="M20.0007658,37.8648812 C20.0150891,39.9617961 21.7069322,41.6575327 23.7922468,41.6575327 C25.8777719,41.6575327 27.569615,39.9617961 27.5837278,37.8648812 L20.0007658,37.8648812 Z" id="Fill-13" fill="#2FBB80" style="mix-blend-mode: multiply;"></path>
                    <g id="Group-5" transform="translate(224.000000, 33.000000) rotate(30.000000) translate(-224.000000, -33.000000) translate(200.000000, 9.000000)">
                        <g id="Oval-14">
                            <use fill="black" fill-opacity="1" filter="url(#filter-4)" xlink:href="#path-3"></use>
                            <use fill="#EAD959" fill-rule="evenodd" xlink:href="#path-3"></use>
                        </g>
                        <g id="Group-82" transform="translate(11.000000, 14.000000)" fill="#F5993D">
                            <path d="M0.843506237,8.4284374 C0.550930287,8.4284374 0.266779849,8.27567783 0.11111849,8.00344974 C-0.119740575,7.59932165 0.0207548595,7.08457457 0.424758224,6.85364424 L5.04236081,4.21416954 L0.424758224,1.57469484 C0.0207548595,1.34376451 -0.119740575,0.829017429 0.11111849,0.424889348 C0.342188193,0.0207612666 0.856776421,-0.11977754 1.26056915,0.111152793 L8.43889588,4.21416954 L1.26056915,8.31718629 C1.12870986,8.39261791 0.985265499,8.4284374 0.843506237,8.4284374" id="Fill-14" style="mix-blend-mode: multiply;"></path>
                            <path d="M24.8545763,8.4284374 C24.712817,8.4284374 24.5693727,8.39261791 24.4375134,8.31718629 L17.2591866,4.21416954 L24.4375134,0.111152793 C24.8415167,-0.11977754 25.356105,0.0207612666 25.586964,0.424889348 C25.8178231,0.829017429 25.6773277,1.34376451 25.2733243,1.57469484 L20.6557217,4.21416954 L25.2733243,6.85364424 C25.6773277,7.08457457 25.8178231,7.59932165 25.586964,8.00344974 C25.4313027,8.27567783 25.1471522,8.4284374 24.8545763,8.4284374" id="Fill-15" style="mix-blend-mode: multiply;"></path>
                            <path d="M9.16287917,14.643961 C9.16287917,12.5493639 10.8604095,10.8513096 12.9543602,10.8513096 C15.0483109,10.8513096 16.7458412,12.5493639 16.7458412,14.643961 C16.7458412,16.7385581 15.0483109,18.4366124 12.9543602,18.4366124 C10.8604095,18.4366124 9.16287917,16.7385581 9.16287917,14.643961" id="Fill-16" style="mix-blend-mode: multiply;"></path>
                        </g>
                    </g>
                    <g id="Rectangle-34">
                        <use fill="black" fill-opacity="1" filter="url(#filter-6)" xlink:href="#path-5"></use>
                        <use fill="#35BDFA" fill-rule="evenodd" xlink:href="#path-5"></use>
                    </g>
                    <g id="Group-84" transform="translate(74.000000, 26.000000)" fill="#2780FF">
                        <path d="M0.633106335,3.22606406 C0.633106335,1.82973622 1.76486341,0.697629765 3.16076034,0.697629765 C4.55665726,0.697629765 5.68841434,1.82973622 5.68841434,3.22606406 C5.68841434,4.6223919 4.55665726,5.75449835 3.16076034,5.75449835 C1.76486341,5.75449835 0.633106335,4.6223919 0.633106335,3.22606406" id="Fill-17" style="mix-blend-mode: multiply;"></path>
                        <path d="M15.7990304,3.22606406 C15.7990304,1.82973622 16.9307874,0.697629765 18.3266844,0.697629765 C19.7225813,0.697629765 20.8543384,1.82973622 20.8543384,3.22606406 C20.8543384,4.6223919 19.7225813,5.75449835 18.3266844,5.75449835 C16.9307874,5.75449835 15.7990304,4.6223919 15.7990304,3.22606406" id="Fill-18" style="mix-blend-mode: multiply;"></path>
                        <rect id="Rectangle" style="mix-blend-mode: multiply;" x="7" y="12" width="8" height="2"></rect>
                    </g>
                    <g id="Triangle">
                        <use fill="black" fill-opacity="1" filter="url(#filter-8)" xlink:href="#path-7"></use>
                        <use fill="#F36468" fill-rule="evenodd" xlink:href="#path-7"></use>
                    </g>
                    <g id="Group-84" transform="translate(133.000000, 37.000000)" fill="#DA2554">
                        <path d="M0.633106335,3.22606406 C0.633106335,1.82973622 1.76486341,0.697629765 3.16076034,0.697629765 C4.55665726,0.697629765 5.68841434,1.82973622 5.68841434,3.22606406 C5.68841434,4.6223919 4.55665726,5.75449835 3.16076034,5.75449835 C1.76486341,5.75449835 0.633106335,4.6223919 0.633106335,3.22606406" id="Fill-17" style="mix-blend-mode: multiply;"></path>
                        <path d="M15.7990304,3.22606406 C15.7990304,1.82973622 16.9307874,0.697629765 18.3266844,0.697629765 C19.7225813,0.697629765 20.8543384,1.82973622 20.8543384,3.22606406 C20.8543384,4.6223919 19.7225813,5.75449835 18.3266844,5.75449835 C16.9307874,5.75449835 15.7990304,4.6223919 15.7990304,3.22606406" id="Fill-18" style="mix-blend-mode: multiply;"></path>
                        <path d="M7.1838587,11.8648812 C7.19818208,13.9617961 8.89002515,15.6575327 10.9753397,15.6575327 C13.0608649,15.6575327 14.752708,13.9617961 14.7668207,11.8648812 L7.1838587,11.8648812 Z" id="Fill-19" style="mix-blend-mode: multiply;"></path>
                    </g>
                </g>
            </g>
        </g>
    </g>
</svg>