<?xml version="1.0" encoding="UTF-8"?>
<svg width="1920px" height="1080px" viewBox="0 0 1920 1080" version="1.1" xmlns="http://www.w3.org/2000/svg" xmlns:xlink="http://www.w3.org/1999/xlink">
    <!-- Generator: Sketch 42 (36781) - http://www.bohemiancoding.com/sketch -->
    <title>contact-cloud03</title>
    <desc>Created with Sketch.</desc>
    <defs></defs>
    <g id="Page-1" stroke="none" stroke-width="1" fill="none" fill-rule="evenodd">
        <g id="Group-69">
            <rect id="Rectangle-2" x="0" y="0" width="1920" height="1080"></rect>
            <g id="Group-18" transform="translate(318.000000, 622.000000)" fill="#FFFFFF">
                <ellipse id="Oval-10" cx="305.600004" cy="420.800005" rx="128.000002" ry="128.000002"></ellipse>
                <circle id="Oval-10" cx="641.600008" cy="382.400005" r="128.000002"></circle>
                <ellipse id="Oval-10" cx="488.000006" cy="433.600006" rx="128.000002" ry="128.000002"></ellipse>
                <ellipse id="Oval-10" cx="947.200011" cy="464.000006" rx="128.000002" ry="128.000002"></ellipse>
                <ellipse id="Oval-10" cx="1059" cy="562.000002" rx="128.000002" ry="128.000002"></ellipse>
                <ellipse id="Oval-10" cx="642.000002" cy="534.000002" rx="128.000002" ry="128.000002"></ellipse>
                <ellipse id="Oval-10" cx="224.000002" cy="534.000002" rx="128.000002" ry="128.000002"></ellipse>
                <ellipse id="Oval-10" cx="142.400002" cy="390.400005" rx="64.0000008" ry="64.0000008"></ellipse>
                <ellipse id="Oval-10" cx="603.200007" cy="64.0000008" rx="64.0000008" ry="64.0000008"></ellipse>
                <ellipse id="Oval-10" cx="673.600008" cy="92.8000012" rx="64.0000008" ry="64.0000008"></ellipse>
                <ellipse id="Oval-10" cx="689.600008" cy="171.200002" rx="64.0000008" ry="64.0000008"></ellipse>
                <ellipse id="Oval-10" cx="521.600006" cy="254.400003" rx="64.0000008" ry="64.0000008"></ellipse>
                <ellipse id="Oval-10" cx="907.000001" cy="294.000001" rx="64.0000008" ry="64.0000008"></ellipse>
                <ellipse id="Oval-10" cx="1155" cy="410.000001" rx="64.0000008" ry="64.0000008"></ellipse>
                <ellipse id="Oval-10" cx="96.0000012" cy="486.400006" rx="96.0000012" ry="96.0000012"></ellipse>
                <ellipse id="Oval-10" cx="425.600005" cy="278.400004" rx="96.0000012" ry="96.0000012"></ellipse>
                <ellipse id="Oval-10" cx="1029" cy="421.000001" rx="96.0000012" ry="96.0000012"></ellipse>
                <ellipse id="Oval-10" cx="1187" cy="510.000001" rx="96.0000012" ry="96.0000012"></ellipse>
                <ellipse id="Oval-10" cx="596.800007" cy="177.600002" rx="96.0000012" ry="96.0000012"></ellipse>
                <ellipse id="Oval-10" cx="787.20001" cy="275.200004" rx="96.0000012" ry="96.0000012"></ellipse>
                <ellipse id="Oval-10" cx="788.80001" cy="384.000005" rx="96.0000012" ry="96.0000012"></ellipse>
                <ellipse id="Oval-10" cx="627.200008" cy="273.600003" rx="96.0000012" ry="96.0000012"></ellipse>
            </g>
        </g>
    </g>
</svg>