<?xml version="1.0" encoding="UTF-8"?>
<svg width="1920px" height="1080px" viewBox="0 0 1920 1080" version="1.1" xmlns="http://www.w3.org/2000/svg" xmlns:xlink="http://www.w3.org/1999/xlink">
    <!-- Generator: Sketch 42 (36781) - http://www.bohemiancoding.com/sketch -->
    <title>contact-cloud01</title>
    <desc>Created with Sketch.</desc>
    <defs>
        <polygon id="path-1" points="780.7622 416 1561.524 416 1561.524 0 780.7622 0 0.0004 0 0.0004 416 780.7622 416"></polygon>
    </defs>
    <g id="Page-1" stroke="none" stroke-width="1" fill="none" fill-rule="evenodd">
        <g id="Group-67">
            <rect id="Rectangle-2" x="0" y="0" width="1920" height="1080"></rect>
            <g id="Page-1" opacity="0.5" transform="translate(179.000000, 664.000000)">
                <mask id="mask-2" fill="white">
                    <use xlink:href="#path-1"></use>
                </mask>
                <g id="Clip-2"></g>
                <path d="M1561.5244,416 C1555.9454,350.458 1500.9864,299 1434.0004,299 C1390.4804,299 1352.0414,320.724 1328.9144,353.914 C1328.9664,352.615 1329.0004,351.312 1329.0004,350 C1329.0004,297.912 1287.5154,255.517 1235.7834,254.043 C1235.9144,252.377 1236.0004,250.699 1236.0004,249 C1236.0004,230.567 1228.1964,213.966 1215.7254,202.288 C1215.9004,199.547 1216.0004,196.785 1216.0004,194 C1216.0004,123.308 1158.6914,66 1088.0004,66 C1056.1604,66 1027.0404,77.629 1004.6434,96.866 C996.0864,52.618 957.1484,19.2 910.4004,19.2 C869.6284,19.2 834.7984,44.619 820.8784,80.471 C816.2424,81.394 811.6944,82.567 807.2524,83.977 C801.3364,36.633 760.9474,0 712.0004,0 C661.9944,0 620.9244,38.236 616.4184,87.065 C582.2694,88.422 555.0004,116.52 555.0004,151 C555.0004,161.964 557.7614,172.281 562.6204,181.302 C533.1084,193.951 509.3114,217.371 496.1764,246.622 C485.2954,243.614 473.8374,242 462.0004,242 C459.1974,242 456.4184,242.1 453.6604,242.277 C431.6254,203.646 390.0564,177.6 342.4004,177.6 C271.7074,177.6 214.4004,234.907 214.4004,305.6 C214.4004,315.942 215.6344,325.994 217.9514,335.625 C204.5684,339.744 193.0664,348.138 185.0174,359.207 C170.7774,324.023 136.2904,299.2 96.0004,299.2 C42.9804,299.2 0.0004,342.181 0.0004,395.2 C0.0004,402.343 0.7874,409.302 2.2664,416 L1561.5244,416 Z" id="Fill-1" fill="#FFFFFF" mask="url(#mask-2)"></path>
            </g>
        </g>
    </g>
</svg>