<?xml version="1.0" encoding="UTF-8"?>
<svg width="1920px" height="1080px" viewBox="0 0 1920 1080" version="1.1" xmlns="http://www.w3.org/2000/svg" xmlns:xlink="http://www.w3.org/1999/xlink">
    <!-- Generator: Sketch 42 (36781) - http://www.bohemiancoding.com/sketch -->
    <title>contact-rocket</title>
    <desc>Created with Sketch.</desc>
    <defs>
        <polygon id="path-1" points="44.80008 296 89.6 296 89.6 0.3348 0.00016 0.3348 0.00016 296"></polygon>
        <polygon id="path-3" points="44.80008 296 89.6 296 89.6 0.3348 0.00016 0.3348 0.00016 296"></polygon>
        <polygon id="path-5" points="44.8 0.33584 44.8 295.99984 0.00048 295.99984 0.00048 0.33584 44.8 0.33584"></polygon>
        <filter x="-50%" y="-50%" width="200%" height="200%" filterUnits="objectBoundingBox" id="filter-7">
            <feGaussianBlur stdDeviation="16" in="SourceGraphic"></feGaussianBlur>
        </filter>
        <filter x="-50%" y="-50%" width="200%" height="200%" filterUnits="objectBoundingBox" id="filter-8">
            <feGaussianBlur stdDeviation="16" in="SourceGraphic"></feGaussianBlur>
        </filter>
        <polygon id="path-9" points="0.439944611 0.8832 69.9605911 0.8832 69.9605911 206.4008 0.439944611 206.4008 0.439944611 0.8832"></polygon>
        <filter x="-50%" y="-50%" width="200%" height="200%" filterUnits="objectBoundingBox" id="filter-11">
            <feGaussianBlur stdDeviation="16" in="SourceGraphic"></feGaussianBlur>
        </filter>
        <filter x="-50%" y="-50%" width="200%" height="200%" filterUnits="objectBoundingBox" id="filter-12">
            <feGaussianBlur stdDeviation="16" in="SourceGraphic"></feGaussianBlur>
        </filter>
    </defs>
    <g id="Page-1" stroke="none" stroke-width="1" fill="none" fill-rule="evenodd">
        <g id="Group-2" transform="translate(880.000000, 95.000000)">
            <g id="Group-46">
                <g id="Page-1" transform="translate(35.200000, 0.000000)">
                    <g id="Group-3" transform="translate(0.000000, 0.265600)">
                        <mask id="mask-2" fill="white">
                            <use xlink:href="#path-1"></use>
                        </mask>
                        <g id="Clip-2"></g>
                        <path d="M89.60016,296 L0.00016,296 L0.00016,110.76 C0.00016,73.24 11.17296,36.8384 31.68176,7.5408 C38.40656,-2.0672 51.19216,-2.0672 57.91856,7.5408 C78.42736,36.8384 89.60016,73.24 89.60016,110.76 L89.60016,296 Z" id="Fill-1" fill="#721322" mask="url(#mask-2)"></path>
                    </g>
                    <g id="Group-6" transform="translate(0.000000, 0.265600)">
                        <mask id="mask-4" fill="white">
                            <use xlink:href="#path-3"></use>
                        </mask>
                        <g id="Clip-5"></g>
                        <path d="M89.60016,296 L0.00016,296 L0.00016,110.76 C0.00016,73.24 11.17296,36.8384 31.68176,7.5408 C38.40656,-2.0672 51.19216,-2.0672 57.91856,7.5408 C78.42736,36.8384 89.60016,73.24 89.60016,110.76 L89.60016,296 Z" id="Fill-4" fill="#AF1E52" mask="url(#mask-4)"></path>
                    </g>
                    <path d="M57.91888,7.80624 C51.19248,-1.80176 38.40688,-1.80176 31.68208,7.80624 C25.96048,15.97744 20.99568,24.71824 16.76688,33.86544 L72.83088,33.86544 C68.60368,24.71824 63.63888,15.97744 57.91888,7.80624" id="Fill-7" fill="#60123F"></path>
                    <path d="M6.33616,62.6656 L83.26416,62.6656 C82.68976,60.5184 82.07856,58.384 81.42896,56.2656 L8.17136,56.2656 C7.52016,58.384 6.91056,60.5184 6.33616,62.6656" id="Fill-9" fill="#DA2554"></path>
                    <path d="M1.40336,88.2656 L88.19696,88.2656 C87.93616,86.1248 87.64336,83.9904 87.31056,81.8656 L2.28976,81.8656 C1.95696,83.9904 1.66416,86.1248 1.40336,88.2656" id="Fill-11" fill="#DA2554"></path>
                    <g id="Group-15" transform="translate(44.800000, 0.265600)">
                        <mask id="mask-6" fill="white">
                            <use xlink:href="#path-5"></use>
                        </mask>
                        <g id="Clip-14"></g>
                        <path d="M13.11888,7.54064 L13.11888,7.54064 C9.75568,2.73744 4.87888,0.33584 0.00048,0.33584 L0.00048,295.99984 L44.80048,295.99984 L44.80048,110.75984 C44.80048,73.24144 33.62608,36.83824 13.11888,7.54064" id="Fill-13" fill="#092048" opacity="0.300000012" mask="url(#mask-6)"></path>
                    </g>
                </g>
                <g id="Page-1" transform="translate(108.800000, 79.000000)">
                    <path d="M41.6,230.4 L3.2,230.4 L3.2,57.6 C3.2,36.8288 9.9376,16.6176 22.4,0 C34.8624,16.6176 41.6,36.8288 41.6,57.6 L41.6,230.4 Z" id="Fill-1" fill="#F5993D"></path>
                    <polygon id="Fill-3" fill="#EE5621" points="3.2 83.2 41.6 83.2 41.6 64 3.2 64"></polygon>
                    <polygon id="Fill-5" fill="#EE5621" points="3.2 102.4 41.6 102.4 41.6 96 3.2 96"></polygon>
                    <polygon id="Fill-6" fill="#EE5621" points="3.2 121.6 41.6 121.6 41.6 115.2 3.2 115.2"></polygon>
                    <polygon id="Fill-7" fill="#090909" points="35.2 236.8 9.6 236.8 3.2 230.4 41.6 230.4"></polygon>
                    <polygon id="Fill-8" fill="#0B2248" points="35.2 236.8 9.6 236.8 3.2 230.4 41.6 230.4"></polygon>
                    <polygon id="Fill-9" fill="#FFFFFF" points="35.2 236.8 9.6 236.8 3.2 249.6 41.6 249.6"></polygon>
                    <path d="M41.6,256 L3.2,256 C1.4336,256 0,254.5664 0,252.8 C0,251.0336 1.4336,249.6 3.2,249.6 L41.6,249.6 C43.3664,249.6 44.8,251.0336 44.8,252.8 C44.8,254.5664 43.3664,256 41.6,256" id="Fill-10" fill="#0B2248"></path>
                    <polygon id="Fill-11" fill="#DB5F0B" points="3.2 230.4 41.6 230.4 41.6 224 3.2 224"></polygon>
                    <path d="M41.6,57.6 C41.6,36.8288 34.8624,16.6176 22.4,0 L22.4,249.6 L41.6,249.6 L35.2,236.8 L41.6,230.4 L41.6,57.6 Z" id="Fill-12" fill="#11082D" opacity="0.300000012"></path>
                </g>
                <g id="Page-1" transform="translate(6.400000, 79.000000)">
                    <path d="M41.6,230.4 L3.2,230.4 L3.2,57.6 C3.2,36.8288 9.9376,16.6176 22.4,0 C34.8624,16.6176 41.6,36.8288 41.6,57.6 L41.6,230.4 Z" id="Fill-1" fill="#F5993D"></path>
                    <polygon id="Fill-3" fill="#EE5621" points="3.2 83.2 41.6 83.2 41.6 64 3.2 64"></polygon>
                    <polygon id="Fill-5" fill="#EE5621" points="3.2 102.4 41.6 102.4 41.6 96 3.2 96"></polygon>
                    <polygon id="Fill-6" fill="#EE5621" points="3.2 121.6 41.6 121.6 41.6 115.2 3.2 115.2"></polygon>
                    <polygon id="Fill-7" fill="#090909" points="35.2 236.8 9.6 236.8 3.2 230.4 41.6 230.4"></polygon>
                    <polygon id="Fill-8" fill="#0B2248" points="35.2 236.8 9.6 236.8 3.2 230.4 41.6 230.4"></polygon>
                    <polygon id="Fill-9" fill="#FFFFFF" points="35.2 236.8 9.6 236.8 3.2 249.6 41.6 249.6"></polygon>
                    <path d="M41.6,256 L3.2,256 C1.4336,256 0,254.5664 0,252.8 C0,251.0336 1.4336,249.6 3.2,249.6 L41.6,249.6 C43.3664,249.6 44.8,251.0336 44.8,252.8 C44.8,254.5664 43.3664,256 41.6,256" id="Fill-10" fill="#0B2248"></path>
                    <polygon id="Fill-11" fill="#DB5F0B" points="3.2 230.4 41.6 230.4 41.6 224 3.2 224"></polygon>
                    <path d="M41.6,57.6 C41.6,36.8288 34.8624,16.6176 22.4,0 L22.4,249.6 L41.6,249.6 L35.2,236.8 L41.6,230.4 L41.6,57.6 Z" id="Fill-12" fill="#11082D" opacity="0.300000012"></path>
                </g>
                <path d="M150.4,309.4 L112,309.4 L112,136.6 C112,115.8288 118.7376,95.6176 131.2,79 C143.6624,95.6176 150.4,115.8288 150.4,136.6 L150.4,309.4 Z" id="Fill-1" fill="#F5993D" opacity="0.300000012" filter="url(#filter-7)"></path>
                <path d="M48,309.4 L9.6,309.4 L9.6,136.6 C9.6,115.8288 16.3376,95.6176 28.8,79 C41.2624,95.6176 48,115.8288 48,136.6 L48,309.4 Z" id="Fill-1" fill="#F5993D" opacity="0.300000012" filter="url(#filter-8)"></path>
                <g id="Page-1" transform="translate(0.000000, 88.600000)">
                    <g id="Group-3" transform="translate(0.000000, 85.516800)" fill="#000000">
                        <path d="M1.73552,121.6 C0.45552,116.936 -0.14608,112.2176 0.02992,107.5376 C0.50192,94.84 6.22352,86.2208 8.37872,82.9712 C14.78992,73.3152 20.38832,65.904 25.36112,59.3216 C32.11792,50.3792 39.96912,38.1424 41.51152,34.8976 L41.74672,34.4048 C47.97712,21.36 51.15792,10.2816 51.19792,1.5088 L51.19792,0 L57.59792,0 L57.59792,121.6 L1.73552,121.6 Z" id="Fill-1"></path>
                    </g>
                    <path d="M57.59792,207.1168 L57.59792,85.5168 L57.59792,87.0256 C57.52912,102.2752 49.17232,119.2032 47.29392,123.16 C45.41392,127.1168 37.21872,139.7616 30.46832,148.6976 C25.57392,155.1728 20.02832,162.5136 13.71152,172.0288 C11.65232,175.1296 6.83152,182.392 6.42512,193.2928 C6.25232,197.9184 6.91152,202.5552 8.36432,207.1168 L57.59792,207.1168 Z" id="Fill-4" fill="#FFFFFF"></path>
                    <path d="M57.59792,207.1168 L57.59792,85.5168 L57.59792,87.0256 C57.52912,102.2752 49.17232,119.2032 47.29392,123.16 C45.41392,127.1168 37.21872,139.7616 30.46832,148.6976 C25.57392,155.1728 20.02832,162.5136 13.71152,172.0288 C11.65232,175.1296 6.83152,182.392 6.42512,193.2928 C6.25232,197.9184 6.91152,202.5552 8.36432,207.1168 L57.59792,207.1168 Z" id="Fill-6" fill="#FFFFFF"></path>
                    <g id="Group-10" transform="translate(0.000000, 85.516800)" fill="#0B2248">
                        <path d="M1.73552,121.6 C0.45552,116.936 -0.14608,112.2176 0.02992,107.5376 C0.50192,94.84 6.22352,86.2208 8.37872,82.9712 C14.78992,73.3152 20.38832,65.904 25.36112,59.3216 C32.11792,50.3792 39.96912,38.1424 41.51152,34.8976 L41.74672,34.4048 C47.97712,21.36 51.15792,10.2816 51.19792,1.5088 L51.19792,0 L57.59792,0 L57.59792,121.6 L1.73552,121.6 Z" id="Fill-8"></path>
                    </g>
                    <path d="M57.59792,207.1168 L57.59792,85.5168 L57.59792,87.0256 C57.52912,102.2752 49.17232,119.2032 47.29392,123.16 C45.41392,127.1168 37.21872,139.7616 30.46832,148.6976 C25.57392,155.1728 20.02832,162.5136 13.71152,172.0288 C11.65232,175.1296 6.83152,182.392 6.42512,193.2928 C6.25232,197.9184 6.91152,202.5552 8.36432,207.1168 L57.59792,207.1168 Z" id="Fill-11" fill="#FFFFFF"></path>
                    <path d="M57.59792,207.1168 L57.59792,85.5168 L57.59792,87.0256 C57.52912,102.2752 49.17232,119.2032 47.29392,123.16 C45.41392,127.1168 37.21872,139.7616 30.46832,148.6976 C25.57392,155.1728 20.02832,162.5136 13.71152,172.0288 C11.65232,175.1296 6.83152,182.392 6.42512,193.2928 C6.25232,197.9184 6.91152,202.5552 8.36432,207.1168 L57.59792,207.1168 Z" id="Fill-13" fill="#FFFFFF"></path>
                    <path d="M158.26352,207.1168 C159.54192,202.4528 160.14512,197.7344 159.96752,193.0544 C159.49552,180.3568 153.77392,171.7376 151.61872,168.488 C145.20752,158.832 139.60912,151.4208 134.63632,144.8384 C127.87952,135.896 120.02992,123.6592 118.48592,120.4144 L118.25072,119.9216 C112.02032,106.8768 108.83952,95.7984 108.79952,87.0256 L108.79952,85.5168 L102.39952,85.5168 L102.39952,207.1168 L158.26352,207.1168 Z" id="Fill-15" fill="#0B2248"></path>
                    <path d="M102.39952,207.1168 L102.39952,85.5168 L102.39952,87.0256 C102.46992,102.2752 110.82512,119.2032 112.70512,123.16 C114.58512,127.1168 122.77872,139.7616 129.53072,148.6976 C134.42512,155.1728 139.97072,162.5136 146.28752,172.0288 C148.34672,175.1296 153.16592,182.392 153.57232,193.2928 C153.74672,197.9184 153.08592,202.5552 151.63312,207.1168 L102.39952,207.1168 Z" id="Fill-17" fill="#FFFFFF"></path>
                    <path d="M102.39952,207.1168 L102.39952,85.5168 L102.39952,87.0256 C102.46992,102.2752 110.82512,119.2032 112.70512,123.16 C114.58512,127.1168 122.77872,139.7616 129.53072,148.6976 C134.42512,155.1728 139.97072,162.5136 146.28752,172.0288 C148.34672,175.1296 153.16592,182.392 153.57232,193.2928 C153.74672,197.9184 153.08592,202.5552 151.63312,207.1168 L102.39952,207.1168 Z" id="Fill-19" fill="#FFFFFF"></path>
                    <g id="Group-23" transform="translate(44.800000, 0.716800)">
                        <mask id="mask-10" fill="white">
                            <use xlink:href="#path-9"></use>
                        </mask>
                        <g id="Clip-22"></g>
                        <path d="M18.6792,10.3 L18.6792,10.3 C4.4664,34.3016 -1.6936,62.22 1.0952,89.9736 L12.7992,206.4008 L57.5992,206.4008 L69.3048,89.9736 C72.0952,62.22 65.9336,34.3016 51.7208,10.3 C44.2856,-2.2568 26.1144,-2.2568 18.6792,10.3" id="Fill-21" fill="#FFFFFF" mask="url(#mask-10)"></path>
                    </g>
                    <path d="M62.5464,17.82768 C71.0024,5.66128 88.9976,5.66128 97.452,17.82768 C102.9128,25.68528 107.1448,34.23248 110.1208,43.17488 C107.0584,31.96368 102.5144,21.13968 96.5208,11.01648 C89.0856,-1.53872 70.9128,-1.53872 63.4792,11.01648 C57.484,21.13968 52.9416,31.96368 49.8792,43.17488 C52.8536,34.23248 57.0856,25.68528 62.5464,17.82768" id="Fill-24" fill="#0B2248"></path>
                    <path d="M77.59952,45.22544 C71.29872,45.38544 65.14512,46.12944 59.19952,47.44304 L59.19952,53.84624 C65.14512,52.53264 71.29872,51.78544 77.59952,51.62544 L77.59952,45.22544 Z" id="Fill-26" fill="#0B2248"></path>
                    <path d="M83.99952,45.26992 L83.99952,51.66992 C89.74352,51.91312 95.35952,52.64272 100.79952,53.84592 L100.79952,47.44272 C95.35952,46.24112 89.74352,45.51152 83.99952,45.26992" id="Fill-28" fill="#0B2248"></path>
                    <g id="Group-32" transform="translate(80.000000, 0.716800)" fill="#092048" opacity="0.3">
                        <path d="M16.52144,10.3 L16.52144,10.3 C12.80304,4.0216 6.40144,0.8824 -0.00016,0.8824 L-0.00016,206.4008 L22.39984,206.4008 L34.10384,89.9736 C36.89424,62.22 30.73424,34.3016 16.52144,10.3" id="Fill-30"></path>
                    </g>
                    <g id="Group-38" transform="translate(101.800000, 105.716800)" fill="#092048" opacity="0.3">
                        <path d="M49.81824,62.77184 C43.40704,53.11424 37.80864,45.70464 32.83744,39.12224 C26.07904,30.17824 18.22944,17.94304 16.68544,14.69664 L16.45184,14.20544 C14.12224,9.33184 12.22304,4.73344 10.75104,0.42624 L0.59904,101.40064 L56.46304,101.40064 C57.74144,96.73664 58.34464,92.01664 58.16864,87.33824 C57.69504,74.64064 51.97504,66.01984 49.81824,62.77184" id="Fill-36"></path>
                    </g>
                    <path d="M117.7152,118.76048 C115.6368,114.32048 113.904,110.10288 112.5504,106.14288 L102.4,207.11728 L108.832,207.11728 L117.7152,118.76048 Z" id="Fill-39" fill="#092048" opacity="0.3"></path>
                    <path d="M47.44176,106.07936 C46.08176,110.06176 44.37296,114.28096 42.28336,118.74656 L51.16656,207.11616 L57.59856,207.11616 L57.59856,207.10176 L47.44176,106.07936 Z" id="Fill-41" fill="#092048" opacity="0.3"></path>
                    <path d="M79.99952,143.1168 L79.99952,143.1168 C78.23312,143.1168 76.79952,144.5504 76.79952,146.3168 L76.79952,207.1168 L83.19952,207.1168 L83.19952,146.3168 C83.19952,144.5504 81.76592,143.1168 79.99952,143.1168" id="Fill-43" fill="#0B2248"></path>
                    <polygon id="Fill-45" fill="#0B2248" points="96.19952 226.3168 64.19952 226.3168 57.79952 207.1168 102.59952 207.1168"></polygon>
                    <polygon id="Fill-47" fill="#9CE6F9" opacity="0.149999991" style="mix-blend-mode: lighten;" points="70.6 226.3168 73.8 226.3168 73.8 207.1168 70.6 207.1168"></polygon>
                    <polygon id="Fill-49" fill="#9CE6F9" opacity="0.149999991" style="mix-blend-mode: lighten;" points="86.6 226.3168 89.8 226.3168 89.8 207.1168 86.6 207.1168"></polygon>
                </g>
                <path d="M150.4,309.4 L112,309.4 L112,136.6 C112,115.8288 118.7376,95.6176 131.2,79 C143.6624,95.6176 150.4,115.8288 150.4,136.6 L150.4,309.4 Z" id="Fill-1" fill="#F5993D" opacity="0.300000012" filter="url(#filter-11)"></path>
                <path d="M48,309.4 L9.6,309.4 L9.6,136.6 C9.6,115.8288 16.3376,95.6176 28.8,79 C41.2624,95.6176 48,115.8288 48,136.6 L48,309.4 Z" id="Fill-1" fill="#F5993D" opacity="0.300000012" filter="url(#filter-12)"></path>
            </g>
            <polygon id="Rectangle-5" fill="#FFFFFF" points="12.8 335.220531 44.8 335.220531 44.8 977.320313 12.8 977.320313"></polygon>
            <polygon id="Rectangle-5" fill="#FFFFFF" points="70.4 315.8 89.6 315.8 89.6 977.320312 70.4 977.320312"></polygon>
            <rect id="Rectangle-5" fill="#FFFFFF" x="115.2" y="335.220531" width="32" height="642.099781"></rect>
        </g>
    </g>
</svg>