<?xml version="1.0" encoding="UTF-8"?>
<svg width="120px" height="120px" viewBox="0 0 120 120" version="1.1" xmlns="http://www.w3.org/2000/svg" xmlns:xlink="http://www.w3.org/1999/xlink">
    <!-- Generator: Sketch 42 (36781) - http://www.bohemiancoding.com/sketch -->
    <title>serve_ux</title>
    <desc>Created with Sketch.</desc>
    <defs></defs>
    <g id="asset" stroke="none" stroke-width="1" fill="none" fill-rule="evenodd">
        <g id="serve_ux">
            <g id="Group-2">
                <rect id="Rectangle-2" x="0" y="0" width="120" height="120"></rect>
                <g id="Group" transform="translate(4.200000, 3.600000)">
                    <path d="M63.15,7.5 C61.0790625,7.5 59.4,5.8209375 59.4,3.75 C59.4,1.6790625 61.0790625,0 63.15,0 L104.025,0 C106.095938,0 107.775,1.6790625 107.775,3.75 C107.775,5.8209375 106.095938,7.5 104.025,7.5 L63.15,7.5 Z" id="Fill-1" fill="#E5E8EC"></path>
                    <path d="M19.05,7.5 C16.9790625,7.5 15.3,5.8209375 15.3,3.75 C15.3,1.6790625 16.9790625,0 19.05,0 L32.925,0 C34.9959375,0 36.675,1.6790625 36.675,3.75 C36.675,5.8209375 34.9959375,7.5 32.925,7.5 L19.05,7.5 Z" id="Fill-1" fill="#E5E8EC"></path>
                    <path d="M87.3375,15 C85.2665625,15 83.5875,13.3209375 83.5875,11.25 C83.5875,9.1790625 85.2665625,7.5 87.3375,7.5 L69.9,7.5 C71.9709375,7.5 73.65,9.1790625 73.65,11.25 C73.65,13.3209375 71.9709375,15 69.9,15 L87.3375,15 Z" id="Fill-3" fill="#E5E8EC"></path>
                    <path d="M29.25,22.5 C27.1790625,22.5 25.5,20.8209375 25.5,18.75 C25.5,16.6790625 27.1790625,15 29.25,15 L91.125,15 C93.1959375,15 94.875,16.6790625 94.875,18.75 C94.875,20.8209375 93.1959375,22.5 91.125,22.5 L29.25,22.5 Z" id="Fill-1" fill="#E5E8EC"></path>
                    <path d="M105.9375,45 C103.866563,45 102.1875,43.3209375 102.1875,41.25 C102.1875,39.1790625 103.866563,37.5 105.9375,37.5 L76.5,37.5 C78.5709375,37.5 80.25,39.1790625 80.25,41.25 C80.25,43.3209375 78.5709375,45 76.5,45 L105.9375,45 Z" id="Fill-3" fill="#E5E8EC"></path>
                    <path d="M8.25,37.5 C6.1790625,37.5 4.5,35.8209375 4.5,33.75 C4.5,31.6790625 6.1790625,30 8.25,30 L40.125,30 C42.1959375,30 43.875,31.6790625 43.875,33.75 C43.875,35.8209375 42.1959375,37.5 40.125,37.5 L8.25,37.5 Z" id="Fill-1" fill="#E5E8EC"></path>
                    <path d="M74.85,37.5 C72.7790625,37.5 71.1,35.8209375 71.1,33.75 C71.1,31.6790625 72.7790625,30 74.85,30 L109.725,30 C111.795937,30 113.475,31.6790625 113.475,33.75 C113.475,35.8209375 111.795937,37.5 109.725,37.5 L74.85,37.5 Z" id="Fill-1" fill="#E5E8EC"></path>
                    <path d="M22.35,52.5 C20.2790625,52.5 18.6,50.8209375 18.6,48.75 C18.6,46.6790625 20.2790625,45 22.35,45 L108.225,45 C110.295937,45 111.975,46.6790625 111.975,48.75 C111.975,50.8209375 110.295937,52.5 108.225,52.5 L22.35,52.5 Z" id="Fill-1" fill="#E5E8EC"></path>
                    <path d="M78.0375,60 C75.9665625,60 74.2875,58.3209375 74.2875,56.25 C74.2875,54.1790625 75.9665625,52.5 78.0375,52.5 L24.6,52.5 C26.6709375,52.5 28.35,54.1790625 28.35,56.25 C28.35,58.3209375 26.6709375,60 24.6,60 L78.0375,60 Z" id="Fill-3" fill="#E5E8EC"></path>
                    <path d="M93.9375,75 C91.8665625,75 90.1875,73.3209375 90.1875,71.25 C90.1875,69.1790625 91.8665625,67.5 93.9375,67.5 L58.5,67.5 C60.5709375,67.5 62.25,69.1790625 62.25,71.25 C62.25,73.3209375 60.5709375,75 58.5,75 L93.9375,75 Z" id="Fill-3" fill="#E5E8EC"></path>
                    <path d="M7.05,67.5 C4.9790625,67.5 3.3,65.8209375 3.3,63.75 C3.3,61.6790625 4.9790625,60 7.05,60 L95.925,60 C97.9959375,60 99.675,61.6790625 99.675,63.75 C99.675,65.8209375 97.9959375,67.5 95.925,67.5 L7.05,67.5 Z" id="Fill-1" fill="#E5E8EC"></path>
                    <path d="M28.35,82.5 C26.2790625,82.5 24.6,80.8209375 24.6,78.75 C24.6,76.6790625 26.2790625,75 28.35,75 L111.225,75 C113.295937,75 114.975,76.6790625 114.975,78.75 C114.975,80.8209375 113.295937,82.5 111.225,82.5 L28.35,82.5 Z" id="Fill-1" fill="#E5E8EC"></path>
                    <path d="M16.65,97.5 C14.5790625,97.5 12.9,95.8209375 12.9,93.75 C12.9,91.6790625 14.5790625,90 16.65,90 L111.525,90 C113.595938,90 115.275,91.6790625 115.275,93.75 C115.275,95.8209375 113.595938,97.5 111.525,97.5 L16.65,97.5 Z" id="Fill-1" fill="#E5E8EC"></path>
                    <path d="M87.0375,105 C84.9665625,105 83.2875,103.320937 83.2875,101.25 C83.2875,99.1790625 84.9665625,97.5 87.0375,97.5 L66.6,97.5 C68.6709375,97.5 70.35,99.1790625 70.35,101.25 C70.35,103.320937 68.6709375,105 66.6,105 L87.0375,105 Z" id="Fill-3" fill="#E5E8EC"></path>
                    <path d="M63.15,112.5 C61.0790625,112.5 59.4,110.820937 59.4,108.75 C59.4,106.679063 61.0790625,105 63.15,105 L104.025,105 C106.095938,105 107.775,106.679063 107.775,108.75 C107.775,110.820937 106.095938,112.5 104.025,112.5 L63.15,112.5 Z" id="Fill-1" fill="#E5E8EC"></path>
                    <path d="M3.75,112.5 C1.6790625,112.5 -3.55271368e-15,110.820937 -3.55271368e-15,108.75 C-3.55271368e-15,106.679063 1.6790625,105 3.75,105 L29.625,105 C31.6959375,105 33.375,106.679063 33.375,108.75 C33.375,110.820937 31.6959375,112.5 29.625,112.5 L3.75,112.5 Z" id="Fill-1" fill="#E5E8EC"></path>
                    <g id="Page-1" transform="translate(12.000000, 15.300000)">
                        <path d="M61.2693642,50.3316923 C61.2007526,39.1454105 52.1602301,30.0978462 41.0150289,30.0978462 C29.8698277,30.0978462 20.8293052,39.1454105 20.7606936,50.3316923 C20.7606936,64.0426523 35.3519168,75.3027877 53.9788162,76.5246591 C55.7318289,76.6397391 57.2184971,75.2494209 57.2184971,73.4943877 L57.2184971,63.7366154 L61.2693642,63.7366154 L61.2693642,50.3316923 Z" id="Fill-1" fill="#031D49"></path>
                        <path d="M31.900578,82.2 L46.0786127,82.2 C47.7564312,82.2 49.116763,80.8410443 49.116763,79.1649231 L49.116763,63.9895385 L28.8624277,63.9895385 L28.8624277,79.1649231 C28.8624277,80.8410443 30.2227595,82.2 31.900578,82.2" id="Fill-3" fill="#031D49"></path>
                        <path d="M41.0150289,32.6270769 C31.5066312,32.6270769 23.7988439,40.32732 23.7988439,49.8258462 L58.2312139,49.8258462 C58.2312139,40.32732 50.5234266,32.6270769 41.0150289,32.6270769" id="Fill-5" fill="#04CEDE"></path>
                        <polygon id="Fill-7" fill="#04CEDE" points="31.900578 82.2 33.9260116 82.2 33.9260116 49.8258462 31.900578 49.8258462"></polygon>
                        <path d="M52.4080925,54.1255385 C52.4080925,53.2876043 53.088385,52.608 53.9271676,52.608 C54.7659503,52.608 55.4462428,53.2876043 55.4462428,54.1255385 C55.4462428,54.9634726 54.7659503,55.6430769 53.9271676,55.6430769 C53.088385,55.6430769 52.4080925,54.9634726 52.4080925,54.1255385" id="Fill-9" fill="#04CEDE"></path>
                        <path d="M85.3052023,36.2104615 L63.0254335,36.2104615 C61.9068879,36.2104615 61,35.3044911 61,34.1870769 L61,20.0233846 C61,18.9059705 61.9068879,18 63.0254335,18 L85.3052023,18 C86.423748,18 87.3306358,18.9059705 87.3306358,20.0233846 L87.3306358,34.1870769 C87.3306358,35.3044911 86.423748,36.2104615 85.3052023,36.2104615" id="Fill-10" fill="#A16EFB"></path>
                        <path d="M53.4208092,24.2806154 L24.0520231,24.2806154 C22.9334775,24.2806154 22.0265896,23.3746449 22.0265896,22.2572308 L22.0265896,2.02338462 C22.0265896,0.905970462 22.9334775,0 24.0520231,0 L53.4208092,0 C54.5393549,0 55.4462428,0.905970462 55.4462428,2.02338462 L55.4462428,22.2572308 C55.4462428,23.3746449 54.5393549,24.2806154 53.4208092,24.2806154" id="Fill-11" fill="#DA2554"></path>
                        <path d="M16.2034682,40.9735385 L2.02543353,40.9735385 C0.906887861,40.9735385 0,40.067568 0,38.9501538 L0,30.8566154 C0,29.7392012 0.906887861,28.8332308 2.02543353,28.8332308 L16.2034682,28.8332308 C17.3220139,28.8332308 18.2289017,29.7392012 18.2289017,30.8566154 L18.2289017,38.9501538 C18.2289017,40.067568 17.3220139,40.9735385 16.2034682,40.9735385" id="Fill-12" fill="#F5993D"></path>
                        <path d="M38.5175934,3.87447803 C35.3657657,3.89370018 32.8162512,6.45125834 32.8162512,9.60445034 C32.8162512,11.9017506 34.1953183,13.311291 35.3918431,15.1042626 C36.2442975,16.3815242 36.7205275,17.7480676 36.7205275,17.7480676 L38.5175934,17.7480676 L40.3144061,17.7480676 C40.3144061,17.7480676 40.7908894,16.3815242 41.6430905,15.1042626 C42.8396154,13.311291 44.2186824,11.9017506 44.2186824,9.60445034 C44.2186824,6.45125834 41.669168,3.89370018 38.5175934,3.87447803" id="Fill-13" fill="#FFFFFF"></path>
                        <path d="M40.2596182,11.1324129 C40.5874214,11.1324129 40.8530991,10.8670039 40.8530991,10.5400381 C40.8530991,10.2130723 40.5874214,9.94766332 40.2596182,9.94766332 C39.9318149,9.94766332 39.6661372,10.2130723 39.6661372,10.5400381 L39.6661372,11.1324129 L40.2596182,11.1324129 Z M37.3688471,10.5400381 C37.3688471,10.2130723 37.1031693,9.94766332 36.7753661,9.94766332 C36.4475629,9.94766332 36.1818852,10.2130723 36.1818852,10.5400381 C36.1818852,10.8670039 36.4475629,11.1324129 36.7753661,11.1324129 L37.3688471,11.1324129 L37.3688471,10.5400381 Z M39.6661372,17.7480929 C39.6661372,18.0242352 39.4422796,18.2480929 39.1661372,18.2480929 C38.8899949,18.2480929 38.6661372,18.0242352 38.6661372,17.7480929 L38.6661372,10.5400381 C38.6661372,9.66056083 39.3797566,8.94766332 40.2596182,8.94766332 C41.1394797,8.94766332 41.8530991,9.66056083 41.8530991,10.5400381 C41.8530991,11.4195154 41.1394797,12.1324129 40.2596182,12.1324129 L36.7753661,12.1324129 C35.8955046,12.1324129 35.1818852,11.4195154 35.1818852,10.5400381 C35.1818852,9.66056083 35.8955046,8.94766332 36.7753661,8.94766332 C37.6552277,8.94766332 38.3688471,9.66056083 38.3688471,10.5400381 L38.3688471,17.7480929 C38.3688471,18.0242352 38.1449894,18.2480929 37.8688471,18.2480929 C37.5927047,18.2480929 37.3688471,18.0242352 37.3688471,17.7480929 L37.3688471,11.1324129 L39.6661372,11.1324129 L39.6661372,17.7480929 Z" id="Stroke-14" fill="#F5993D" fill-rule="nonzero"></path>
                        <path d="M40.4819601,18.5997354 L36.5528723,18.5997354 C36.3432399,18.5997354 36.1731035,18.4297711 36.1731035,18.2203508 L36.1731035,18.1275281 C36.1731035,17.9181078 36.3432399,17.7481434 36.5528723,17.7481434 L40.4819601,17.7481434 C40.6915925,17.7481434 40.8617289,17.9181078 40.8617289,18.1275281 L40.8617289,18.2203508 C40.8617289,18.4297711 40.6915925,18.5997354 40.4819601,18.5997354" id="Fill-15" fill="#293F64"></path>
                        <path d="M40.4819601,19.4512516 L36.5528723,19.4512516 C36.3432399,19.4512516 36.1731035,19.2815402 36.1731035,19.071867 L36.1731035,18.9790442 C36.1731035,18.7696239 36.3432399,18.5996596 36.5528723,18.5996596 L40.4819601,18.5996596 C40.6915925,18.5996596 40.8617289,18.7696239 40.8617289,18.9790442 L40.8617289,19.071867 C40.8617289,19.2815402 40.6915925,19.4512516 40.4819601,19.4512516" id="Fill-16" fill="#293F64"></path>
                        <path d="M36.7530104,20.3028689 C36.9854289,21.0558209 37.6872416,21.6031464 38.5176694,21.6031464 C39.3475908,21.6031464 40.0496566,21.0558209 40.281822,20.3028689 L36.7530104,20.3028689 Z" id="Fill-17" fill="#FFFFFF"></path>
                        <path d="M40.4819601,20.3028689 L36.5528723,20.3028689 C36.3432399,20.3028689 36.1731035,20.1329046 36.1731035,19.9234842 L36.1731035,19.8306615 C36.1731035,19.6212412 36.3432399,19.4512769 36.5528723,19.4512769 L40.4819601,19.4512769 C40.6915925,19.4512769 40.8617289,19.6212412 40.8617289,19.8306615 L40.8617289,19.9234842 C40.8617289,20.1329046 40.6915925,20.3028689 40.4819601,20.3028689" id="Fill-18" fill="#293F64"></path>
                        <g id="Group-5" transform="translate(67.800000, 21.100000)">
                            <path d="M0,6 C0,2.6862 2.6862,0 6,0 C9.3138,0 12,2.6862 12,6 C12,9.3138 9.3138,12 6,12 C2.6862,12 0,9.3138 0,6" id="Combined-Shape" fill="#BB96FF"></path>
                            <polygon id="Stroke-21" fill="#FFFFFF" fill-rule="nonzero" points="5.625 6.75 8.625 6.75 8.625 6 5.625 6"></polygon>
                            <polygon id="Stroke-22" fill="#FFFFFF" fill-rule="nonzero" points="6.375 6 6.375 2.25 5.625 2.25 5.625 6"></polygon>
                        </g>
                        <path d="M9.52908243,35.122593 C9.50730902,35.1172817 9.49363734,35.1144995 9.48832058,35.1144995 L9.48832058,37.3149303 C9.80276913,37.266369 10.0574674,37.1500244 10.2524154,36.9658964 C10.4909102,36.7170201 10.6101576,36.4517038 10.6101576,36.1702004 C10.6101576,35.8940084 10.5286339,35.6828177 10.366346,35.536881 C10.1820316,35.3636287 9.90302809,35.2255327 9.52908243,35.122593 L9.52908243,35.122593 Z M8.05760497,33.774513 C8.18773908,33.9153912 8.42623387,34.0453937 8.77308936,34.1645204 L8.77308936,32.3374041 C8.50193445,32.3753426 8.28268127,32.4618423 8.11457029,32.5971561 C7.90873561,32.7704084 7.80569168,32.9869106 7.80569168,33.2469155 C7.80569168,33.4201678 7.88974717,33.5959494 8.05760497,33.774513 L8.05760497,33.774513 Z M7.61884543,35.780446 C7.62441538,36.2567001 7.75151133,36.6247032 8.00089283,36.8847081 C8.20672751,37.0903346 8.46421075,37.2256484 8.77308936,37.2906497 L8.77308936,34.9521229 C8.75156913,34.9412472 8.72422578,34.9331537 8.69156566,34.9275894 C8.15001538,34.8031512 7.74897954,34.5947426 7.48871133,34.3023635 C7.22337954,33.9722989 7.09046046,33.6204829 7.09046046,33.2469155 C7.0851437,32.7054072 7.28566162,32.2777143 7.69201422,31.9638367 C7.96823272,31.7473346 8.32875988,31.6201143 8.77308936,31.5821758 L8.77308936,31.233142 L9.48832058,31.233142 L9.48832058,31.5740823 C9.98151364,31.6120207 10.3825495,31.7554281 10.6914281,32.0043044 C11.0327136,32.3022478 11.2033564,32.7542214 11.2033564,33.360478 L10.4881252,33.360478 C10.4772385,32.9815992 10.3797645,32.7162829 10.1957032,32.564782 C10.032909,32.4294681 9.79745237,32.351062 9.48832058,32.3293106 L9.48832058,34.3592712 C10.0410108,34.5054607 10.4395148,34.6597438 10.6833264,34.8221204 C10.9486582,35.0277469 11.1248709,35.2389377 11.2117113,35.4554398 C11.2874119,35.6828177 11.3253888,35.9048841 11.3253888,36.1213863 C11.3253888,36.6355789 11.1301876,37.082494 10.7400385,37.4613727 C10.4476165,37.7481875 10.030124,37.9105641 9.48832058,37.9485026 L9.48832058,38.5737284 L8.77308936,38.5737284 L8.77308936,37.9323155 C8.19330902,37.8673143 7.7542963,37.6778749 7.45605121,37.3637444 C7.08767549,36.9957414 6.90361422,36.4678909 6.90361422,35.780446 L7.61884543,35.780446 Z" id="Fill-23" fill="#FFFFFF"></path>
                        <polygon id="Fill-24" fill="#F5993D" points="18.2289017 37.9384615 15.1907514 37.9384615 15.1907514 40.9735385 20.2543353 42.9969231"></polygon>
                        <polygon id="Fill-25" fill="#A16EFB" points="64.3075145 32.88 61.2693642 32.88 59.2439306 37.9384615 64.3075145 35.9150769"></polygon>
                        <polygon id="Fill-26" fill="#DA2554" points="38.7680636 28.3273846 36.2362717 24.2806154 41.2998555 24.2806154"></polygon>
                    </g>
                </g>
            </g>
        </g>
    </g>
</svg>