<?xml version="1.0" encoding="UTF-8"?>
<svg width="284px" height="286px" viewBox="0 0 284 286" version="1.1" xmlns="http://www.w3.org/2000/svg" xmlns:xlink="http://www.w3.org/1999/xlink">
    <!-- Generator: Sketch 42 (36781) - http://www.bohemiancoding.com/sketch -->
    <title>sky_layer04_plant01</title>
    <desc>Created with Sketch.</desc>
    <defs>
        <path d="M0,49.6551724 C0,22.2314483 22.2314483,0 49.6551724,0 C77.0788966,0 99.3103448,22.2314483 99.3103448,49.6551724 C99.3103448,77.0788966 77.0788966,99.3103448 49.6551724,99.3103448 C22.2314483,99.3103448 0,77.0788966 0,49.6551724" id="path-1"></path>
        <filter x="-50%" y="-50%" width="200%" height="200%" filterUnits="objectBoundingBox" id="filter-3">
            <feGaussianBlur stdDeviation="39.3415179" in="SourceGraphic"></feGaussianBlur>
        </filter>
    </defs>
    <g id="Page-1" stroke="none" stroke-width="1" fill="none" fill-rule="evenodd">
        <g id="sky_layer04_plant01" transform="translate(46.000000, 47.000000)">
            <g id="Page-1" transform="translate(46.344828, 45.517241)">
                <mask id="mask-2" fill="white">
                    <use xlink:href="#path-1"></use>
                </mask>
                <use id="Fill-1" fill="#6AFF5C" xlink:href="#path-1"></use>
                <g id="Group-33" mask="url(#mask-2)" fill="#FFFFFF" opacity="0.699999988">
                    <g transform="translate(-6.620690, -4.689655)">
                        <path d="M17.3793103,44.4137931 C17.3793103,38.9291034 21.8256552,34.4827586 27.3103448,34.4827586 C32.7950345,34.4827586 37.2413793,38.9291034 37.2413793,44.4137931 C37.2413793,49.8984828 32.7950345,54.3448276 27.3103448,54.3448276 C21.8256552,54.3448276 17.3793103,49.8984828 17.3793103,44.4137931" id="Fill-3" style="mix-blend-mode: overlay;"></path>
                        <path d="M54.3448276,66.4827586 C54.3448276,62.8262069 57.3089655,59.862069 60.9655172,59.862069 C64.622069,59.862069 67.5862069,62.8262069 67.5862069,66.4827586 C67.5862069,70.1393103 64.622069,73.1034483 60.9655172,73.1034483 C57.3089655,73.1034483 54.3448276,70.1393103 54.3448276,66.4827586" id="Fill-5" style="mix-blend-mode: overlay;"></path>
                        <path d="M41.9310345,32.8275862 C41.9310345,30.0852414 44.1542069,27.862069 46.8965517,27.862069 C49.6388966,27.862069 51.862069,30.0852414 51.862069,32.8275862 C51.862069,35.569931 49.6388966,37.7931034 46.8965517,37.7931034 C44.1542069,37.7931034 41.9310345,35.569931 41.9310345,32.8275862" id="Fill-7" style="mix-blend-mode: overlay;"></path>
                        <path d="M32.2758621,88.8275862 C32.2758621,86.0852414 34.4990345,83.862069 37.2413793,83.862069 C39.9837241,83.862069 42.2068966,86.0852414 42.2068966,88.8275862 C42.2068966,91.569931 39.9837241,93.7931034 37.2413793,93.7931034 C34.4990345,93.7931034 32.2758621,91.569931 32.2758621,88.8275862" id="Fill-9" style="mix-blend-mode: overlay;"></path>
                        <path d="M73.3793103,29.2413793 C73.3793103,25.5848276 76.3434483,22.6206897 80,22.6206897 C83.6565517,22.6206897 86.6206897,25.5848276 86.6206897,29.2413793 C86.6206897,32.897931 83.6565517,35.862069 80,35.862069 C76.3434483,35.862069 73.3793103,32.897931 73.3793103,29.2413793" id="Fill-11" style="mix-blend-mode: overlay;"></path>
                        <path d="M84.4137931,46.8965517 C84.4137931,44.1542069 86.6369655,41.9310345 89.3793103,41.9310345 C92.1216552,41.9310345 94.3448276,44.1542069 94.3448276,46.8965517 C94.3448276,49.6388966 92.1216552,51.862069 89.3793103,51.862069 C86.6369655,51.862069 84.4137931,49.6388966 84.4137931,46.8965517" id="Fill-13" style="mix-blend-mode: overlay;"></path>
                        <path d="M60.9655172,9.93103448 C60.9655172,4.44634483 65.4118621,0 70.8965517,0 C76.3812414,0 80.8275862,4.44634483 80.8275862,9.93103448 C80.8275862,15.4157241 76.3812414,19.862069 70.8965517,19.862069 C65.4118621,19.862069 60.9655172,15.4157241 60.9655172,9.93103448" id="Fill-15" style="mix-blend-mode: overlay;"></path>
                        <path d="M73.3793103,97.6551724 C73.3793103,94.9128276 75.6024828,92.6896552 78.3448276,92.6896552 C81.0871724,92.6896552 83.3103448,94.9128276 83.3103448,97.6551724 C83.3103448,100.397517 81.0871724,102.62069 78.3448276,102.62069 C75.6024828,102.62069 73.3793103,100.397517 73.3793103,97.6551724" id="Fill-17" style="mix-blend-mode: overlay;"></path>
                        <path d="M74.2068966,83.862069 C74.2068966,80.2055172 77.1710345,77.2413793 80.8275862,77.2413793 C84.4841379,77.2413793 87.4482759,80.2055172 87.4482759,83.862069 C87.4482759,87.5186207 84.4841379,90.4827586 80.8275862,90.4827586 C77.1710345,90.4827586 74.2068966,87.5186207 74.2068966,83.862069" id="Fill-19" style="mix-blend-mode: overlay;"></path>
                        <path d="M17.3793103,89.6551724 C17.3793103,86.9128276 19.6024828,84.6896552 22.3448276,84.6896552 C25.0871724,84.6896552 27.3103448,86.9128276 27.3103448,89.6551724 C27.3103448,92.3975172 25.0871724,94.6206897 22.3448276,94.6206897 C19.6024828,94.6206897 17.3793103,92.3975172 17.3793103,89.6551724" id="Fill-21" style="mix-blend-mode: overlay;"></path>
                        <path d="M0,57.1034483 C0,53.4468966 2.96413793,50.4827586 6.62068966,50.4827586 C10.2772414,50.4827586 13.2413793,53.4468966 13.2413793,57.1034483 C13.2413793,60.76 10.2772414,63.7241379 6.62068966,63.7241379 C2.96413793,63.7241379 0,60.76 0,57.1034483" id="Fill-23" style="mix-blend-mode: overlay;"></path>
                        <path d="M24.8275862,12.4137931 C24.8275862,9.67144828 27.0507586,7.44827586 29.7931034,7.44827586 C32.5354483,7.44827586 34.7586207,9.67144828 34.7586207,12.4137931 C34.7586207,15.1561379 32.5354483,17.3793103 29.7931034,17.3793103 C27.0507586,17.3793103 24.8275862,15.1561379 24.8275862,12.4137931" id="Fill-25" style="mix-blend-mode: overlay;"></path>
                        <path d="M89.3793103,79.7241379 C89.3793103,74.2394483 93.8256552,69.7931034 99.3103448,69.7931034 C104.795034,69.7931034 109.241379,74.2394483 109.241379,79.7241379 C109.241379,85.2088276 104.795034,89.6551724 99.3103448,89.6551724 C93.8256552,89.6551724 89.3793103,85.2088276 89.3793103,79.7241379" id="Fill-27" style="mix-blend-mode: overlay;"></path>
                    </g>
                </g>
                <g id="Group-31" mask="url(#mask-2)" fill="#FFFFFF">
                    <g transform="translate(1.655172, 5.241379)">
                        <path d="M38.0689655,10.7586207 C38.0689655,5.27393103 42.5153103,0.827586207 48,0.827586207 C53.4846897,0.827586207 57.9310345,5.27393103 57.9310345,10.7586207 C57.9310345,16.2433103 53.4846897,20.6896552 48,20.6896552 C42.5153103,20.6896552 38.0689655,16.2433103 38.0689655,10.7586207" id="Fill-29"></path>
                        <path d="M19.862069,16 C19.862069,13.2576552 22.0852414,11.0344828 24.8275862,11.0344828 C27.569931,11.0344828 29.7931034,13.2576552 29.7931034,16 C29.7931034,18.7423448 27.569931,20.9655172 24.8275862,20.9655172 C22.0852414,20.9655172 19.862069,18.7423448 19.862069,16" id="Fill-31"></path>
                        <path d="M43.5862069,29.5172414 C43.5862069,25.8606897 46.5503448,22.8965517 50.2068966,22.8965517 C53.8634483,22.8965517 56.8275862,25.8606897 56.8275862,29.5172414 C56.8275862,33.1737931 53.8634483,36.137931 50.2068966,36.137931 C46.5503448,36.137931 43.5862069,33.1737931 43.5862069,29.5172414" id="Fill-33"></path>
                        <path d="M78.3448276,25.9310345 C78.3448276,23.1886897 80.568,20.9655172 83.3103448,20.9655172 C86.0526897,20.9655172 88.2758621,23.1886897 88.2758621,25.9310345 C88.2758621,28.6733793 86.0526897,30.8965517 83.3103448,30.8965517 C80.568,30.8965517 78.3448276,28.6733793 78.3448276,25.9310345" id="Fill-35"></path>
                        <path d="M14.8965517,63.1724138 C14.8965517,59.5158621 17.8606897,56.5517241 21.5172414,56.5517241 C25.1737931,56.5517241 28.137931,59.5158621 28.137931,63.1724138 C28.137931,66.8289655 25.1737931,69.7931034 21.5172414,69.7931034 C17.8606897,69.7931034 14.8965517,66.8289655 14.8965517,63.1724138" id="Fill-37"></path>
                        <path d="M5.79310345,53.7931034 C5.79310345,51.0507586 8.01627586,48.8275862 10.7586207,48.8275862 C13.5009655,48.8275862 15.7241379,51.0507586 15.7241379,53.7931034 C15.7241379,56.5354483 13.5009655,58.7586207 10.7586207,58.7586207 C8.01627586,58.7586207 5.79310345,56.5354483 5.79310345,53.7931034" id="Fill-39"></path>
                        <path d="M76.9655172,9.93103448 C76.9655172,4.44634483 81.4118621,0 86.8965517,0 C92.3812414,0 96.8275862,4.44634483 96.8275862,9.93103448 C96.8275862,15.4157241 92.3812414,19.862069 86.8965517,19.862069 C81.4118621,19.862069 76.9655172,15.4157241 76.9655172,9.93103448" id="Fill-41"></path>
                        <path d="M65.1034483,58.7586207 C65.1034483,56.0162759 67.3266207,53.7931034 70.0689655,53.7931034 C72.8113103,53.7931034 75.0344828,56.0162759 75.0344828,58.7586207 C75.0344828,61.5009655 72.8113103,63.7241379 70.0689655,63.7241379 C67.3266207,63.7241379 65.1034483,61.5009655 65.1034483,58.7586207" id="Fill-43"></path>
                        <path d="M79.4482759,62.3448276 C79.4482759,58.6882759 82.4124138,55.7241379 86.0689655,55.7241379 C89.7255172,55.7241379 92.6896552,58.6882759 92.6896552,62.3448276 C92.6896552,66.0013793 89.7255172,68.9655172 86.0689655,68.9655172 C82.4124138,68.9655172 79.4482759,66.0013793 79.4482759,62.3448276" id="Fill-45"></path>
                        <path d="M35.5862069,84.6896552 C35.5862069,81.9473103 37.8093793,79.7241379 40.5517241,79.7241379 C43.294069,79.7241379 45.5172414,81.9473103 45.5172414,84.6896552 C45.5172414,87.432 43.294069,89.6551724 40.5517241,89.6551724 C37.8093793,89.6551724 35.5862069,87.432 35.5862069,84.6896552" id="Fill-47"></path>
                        <path d="M46.0689655,75.5862069 C46.0689655,72.8438621 48.2921379,70.6206897 51.0344828,70.6206897 C53.7768276,70.6206897 56,72.8438621 56,75.5862069 C56,78.3285517 53.7768276,80.5517241 51.0344828,80.5517241 C48.2921379,80.5517241 46.0689655,78.3285517 46.0689655,75.5862069" id="Fill-49"></path>
                        <path d="M0,17.9310345 C0,14.2744828 2.96413793,11.3103448 6.62068966,11.3103448 C10.2772414,11.3103448 13.2413793,14.2744828 13.2413793,17.9310345 C13.2413793,21.5875862 10.2772414,24.5517241 6.62068966,24.5517241 C2.96413793,24.5517241 0,21.5875862 0,17.9310345" id="Fill-51"></path>
                    </g>
                </g>
            </g>
            <path d="M96,45.5172414 C123.423724,45.5172414 145.655172,67.7486897 145.655172,95.1724138 C145.655172,122.596138 123.423724,144.827586 96,144.827586 C68.5762759,144.827586 46.3448276,122.596138 46.3448276,95.1724138 C46.3448276,67.7486897 68.5762759,45.5172414 96,45.5172414 Z" id="Fill-1" fill="#6AFF5C" opacity="0.700000048" filter="url(#filter-3)"></path>
            <path d="M49.7940074,76.9526623 C8.79959344,80.012159 -19.862069,87.0184901 -19.862069,95.1724138 C-19.862069,106.141932 32.0111462,115.034483 96,115.034483 C159.988854,115.034483 211.862069,106.141932 211.862069,95.1724138 C211.862069,87.0184901 183.200407,80.012159 142.205993,76.9526623 C142.60668,77.967991 142.974869,78.9996961 143.309277,80.0464954 C172.384227,83.0332653 192,88.688134 192,95.1724138 C192,104.770742 149.019336,112.551724 96,112.551724 C42.980664,112.551724 2.84217094e-14,104.770742 2.84217094e-14,95.1724138 C2.84217094e-14,88.688134 19.6157735,83.0332653 48.6907208,80.0465026 C49.0251315,78.9996961 49.3933202,77.967991 49.7940074,76.9526623 Z" id="Combined-Shape" fill="#FFFFFF" style="mix-blend-mode: hard-light;" transform="translate(96.000000, 95.993573) rotate(45.000000) translate(-96.000000, -95.993573) "></path>
        </g>
    </g>
</svg>