<?xml version="1.0" encoding="UTF-8"?>
<svg width="521px" height="522px" viewBox="0 0 521 522" version="1.1" xmlns="http://www.w3.org/2000/svg" xmlns:xlink="http://www.w3.org/1999/xlink">
    <!-- Generator: Sketch 42 (36781) - http://www.bohemiancoding.com/sketch -->
    <title>sky_layer03_plant02</title>
    <desc>Created with Sketch.</desc>
    <defs>
        <filter x="-50%" y="-50%" width="200%" height="200%" filterUnits="objectBoundingBox" id="filter-1">
            <feGaussianBlur stdDeviation="30" in="SourceGraphic"></feGaussianBlur>
        </filter>
    </defs>
    <g id="Page-1" stroke="none" stroke-width="1" fill="none" fill-rule="evenodd">
        <g id="sky_layer03_plant02" transform="translate(-8.000000, -5.000000)">
            <g id="Group-63">
                <path d="M38.5034281,265.820866 C38.5034281,139.01257 141.301418,36.2158552 268.108439,36.2158552 C394.91546,36.2158552 497.71345,139.01257 497.71345,265.820866 C497.71345,392.627887 394.91546,495.425877 268.108439,495.425877 C141.301418,495.425877 38.5034281,392.627887 38.5034281,265.820866" id="Fill-1" fill="#FFCE00" opacity="0.15" transform="translate(268.108439, 265.820866) rotate(-90.000000) translate(-268.108439, -265.820866) "></path>
                <path d="M77.846604,265.821013 C77.846604,162.299462 161.767039,78.3800685 265.287549,78.3800685 C368.808059,78.3800685 452.728494,162.299462 452.728494,265.821013 C452.728494,369.341523 368.808059,453.261958 265.287549,453.261958 C161.767039,453.261958 77.846604,369.341523 77.846604,265.821013" id="Fill-1" fill="#FF9600" transform="translate(265.287549, 265.821013) rotate(-45.000000) translate(-265.287549, -265.821013) "></path>
                <path d="M443.578463,243.730886 C443.578463,140.210376 359.658028,56.2899413 256.137519,56.2899413 C245.345085,56.2899413 234.76821,57.21465 224.475619,58.9651401 C221.566119,61.2540024 219.690668,64.7976775 219.690668,68.7860043 C219.690668,75.6869551 225.28578,81.2820673 232.186731,81.2820673 L238.434763,81.2820673 C245.335713,81.2820673 250.930826,86.8761382 250.930826,93.7781303 C250.930826,100.679081 245.335713,106.274193 238.434763,106.274193 L185.326495,106.274193 C178.425544,106.274193 172.830432,111.868264 172.830432,118.770256 C172.830432,125.671207 178.425544,131.266319 185.326495,131.266319 L272.798936,131.266319 C279.699887,131.266319 285.294999,136.86039 285.294999,143.762382 C285.294999,150.663333 279.699887,156.258445 272.798936,156.258445 L219.690668,156.258445 C212.789717,156.258445 207.194605,161.852516 207.194605,168.754508 C207.194605,175.655459 212.789717,181.250571 219.690668,181.250571 L222.814684,181.250571 C229.715635,181.250571 235.310747,186.844642 235.310747,193.746634 C235.310747,200.647585 229.715635,206.242697 222.814684,206.242697 L147.838306,206.242697 C140.937355,206.242697 135.342243,211.836768 135.342243,218.73876 C135.342243,225.639711 140.937355,231.234823 147.838306,231.234823 L197.822558,231.234823 C204.723509,231.234823 210.318621,236.828894 210.318621,243.730886 C210.318621,250.631837 204.723509,256.226949 197.822558,256.226949 L187.409172,256.226949 C180.508221,256.226949 174.913109,261.82102 174.913109,268.723012 C174.913109,275.623963 180.508221,281.219075 187.409172,281.219075 L228.021377,281.219075 C234.922328,281.219075 240.51744,286.813146 240.51744,293.715138 C240.51744,300.616089 234.922328,306.211201 228.021377,306.211201 L143.672952,306.211201 C136.772001,306.211201 131.176889,311.805272 131.176889,318.707264 C131.176889,325.608215 136.772001,331.203327 143.672952,331.203327 L240.51744,331.203327 C247.418391,331.203327 253.013503,336.797398 253.013503,343.69939 C253.013503,350.600341 247.418391,356.195453 240.51744,356.195453 L208.235944,356.195453 C201.334993,356.195453 195.739881,361.789524 195.739881,368.691516 C195.739881,375.592467 201.334993,381.187579 208.235944,381.187579 L232.186731,381.187579 C239.087682,381.187579 244.682794,386.78165 244.682794,393.683642 C244.682794,400.584593 239.087682,406.179705 232.186731,406.179705 L228.021377,406.179705 C221.120426,406.179705 215.525314,411.773776 215.525314,418.675768 C215.525314,422.133012 216.93008,425.261193 219.198115,427.524022 C231.142269,429.91077 243.491503,431.171831 256.137519,431.171831 C359.658028,431.171831 443.578463,347.251396 443.578463,243.730886" id="Fill-4" fill="#FFFFFF" opacity="0.5" style="mix-blend-mode: overlay;" transform="translate(287.377676, 243.730886) rotate(-45.000000) translate(-287.377676, -243.730886) "></path>
                <path d="M430.153709,198.275084 C430.153709,128.833421 392.389565,68.2139781 336.281201,35.8262655 L301.027725,35.8262655 C294.126774,35.8262655 288.531662,41.4213777 288.531662,48.3223285 C288.531662,55.2232793 294.126774,60.8183915 301.027725,60.8183915 L357.260008,60.8183915 C364.160959,60.8183915 369.756071,66.4135037 369.756071,73.3144545 C369.756071,80.2154053 364.160959,85.8105175 357.260008,85.8105175 L302.069063,85.8105175 C295.168112,85.8105175 289.573,91.4056297 289.573,98.3065805 C289.573,105.207531 295.168112,110.802643 302.069063,110.802643 L335.391898,110.802643 C342.292849,110.802643 347.887961,116.397756 347.887961,123.298706 C347.887961,130.199657 342.292849,135.794769 335.391898,135.794769 L269.787567,135.794769 C262.886616,135.794769 257.291504,141.389882 257.291504,148.290832 C257.291504,155.191783 262.886616,160.786895 269.787567,160.786895 L293.738355,160.786895 C300.639305,160.786895 306.234418,166.382008 306.234418,173.282958 C306.234418,180.183909 300.639305,185.779021 293.738355,185.779021 L286.448985,185.779021 C279.548034,185.779021 273.952922,191.374134 273.952922,198.275084 C273.952922,205.176035 279.548034,210.771147 286.448985,210.771147 L335.391898,210.771147 C342.292849,210.771147 347.887961,216.36626 347.887961,223.26721 C347.887961,230.168161 342.292849,235.763273 335.391898,235.763273 L252.084811,235.763273 C245.183861,235.763273 239.588748,241.358386 239.588748,248.259336 C239.588748,255.160287 245.183861,260.755399 252.084811,260.755399 L341.639929,260.755399 C348.54088,260.755399 354.135992,266.350512 354.135992,273.251462 C354.135992,280.152413 348.54088,285.747525 341.639929,285.747525 L301.027725,285.747525 C294.126774,285.747525 288.531662,291.342638 288.531662,298.243588 C288.531662,305.144539 294.126774,310.739651 301.027725,310.739651 L315.606465,310.739651 C322.507416,310.739651 328.102528,316.334764 328.102528,323.235714 C328.102528,330.136665 322.507416,335.731777 315.606465,335.731777 L283.324969,335.731777 C276.424018,335.731777 270.828906,341.32689 270.828906,348.22784 C270.828906,355.128791 276.424018,360.723903 283.324969,360.723903 L294.779693,360.723903 C301.680644,360.723903 307.275756,366.319016 307.275756,373.219966 C307.275756,373.590683 307.252847,373.957234 307.219524,374.31962 C378.960463,348.024779 430.153709,279.128777 430.153709,198.275084" id="Fill-7" fill="#FFFFFF" opacity="0.5" style="mix-blend-mode: overlay;" transform="translate(334.871229, 205.072943) rotate(-45.000000) translate(-334.871229, -205.072943) "></path>
            </g>
            <path d="M81,265.690945 C81,162.169394 164.920435,78.25 268.440945,78.25 C371.961455,78.25 455.88189,162.169394 455.88189,265.690945 C455.88189,369.211455 371.961455,453.13189 268.440945,453.13189 C164.920435,453.13189 81,369.211455 81,265.690945" id="Fill-1" fill="#FF9600" opacity="0.300000012" filter="url(#filter-1)"></path>
        </g>
    </g>
</svg>