<?xml version="1.0" encoding="UTF-8"?>
<svg width="167px" height="167px" viewBox="0 0 167 167" version="1.1" xmlns="http://www.w3.org/2000/svg" xmlns:xlink="http://www.w3.org/1999/xlink">
    <!-- Generator: Sketch 42 (36781) - http://www.bohemiancoding.com/sketch -->
    <title>sky_layer04_plant03</title>
    <desc>Created with Sketch.</desc>
    <defs>
        <filter x="-50%" y="-50%" width="200%" height="200%" filterUnits="objectBoundingBox" id="filter-1">
            <feGaussianBlur stdDeviation="20" in="SourceGraphic"></feGaussianBlur>
        </filter>
    </defs>
    <g id="Page-1" stroke="none" stroke-width="1" fill="none" fill-rule="evenodd">
        <g id="sky_layer04_plant03" transform="translate(-14.000000, -15.000000)">
            <g id="Page-1" transform="translate(97.905505, 97.439560) rotate(-45.000000) translate(-97.905505, -97.439560) translate(69.736491, 69.270546)">
                <path d="M1.2009173e-14,27.9250162 C1.2009173e-14,12.5024952 12.5024952,-1.24094788e-13 27.9250162,-1.24094788e-13 C43.3475372,-1.24094788e-13 55.8500323,12.5024952 55.8500323,27.9250162 C55.8500323,43.3475372 43.3475372,55.8500323 27.9250162,55.8500323 C12.5024952,55.8500323 1.2009173e-14,43.3475372 1.2009173e-14,27.9250162" id="Fill-1" fill="#FF4D62"></path>
                <path d="M55.8500323,27.9250162 C55.8500323,12.5024952 43.3475372,1.48113134e-13 27.9250162,1.48113134e-13 C26.3171558,1.48113134e-13 24.7414092,0.137763413 23.2080155,0.398707175 C22.7745572,0.739547511 22.4951519,1.26748546 22.4951519,1.86166774 C22.4951519,2.88977376 23.3287136,3.72333549 24.3568197,3.72333549 L25.2876535,3.72333549 C26.3157595,3.72333549 27.1493213,4.55689722 27.1493213,5.58500323 C27.1493213,6.61310924 26.3157595,7.44667098 25.2876535,7.44667098 L14.272786,7.44667098 C13.24468,7.44667098 12.4111183,8.28023271 12.4111183,9.30833872 C12.4111183,10.3364447 13.24468,11.1700065 14.272786,11.1700065 L28.85585,11.1700065 C29.883956,11.1700065 30.7175178,12.0035682 30.7175178,13.0316742 C30.7175178,14.0597802 29.883956,14.893342 28.85585,14.893342 L22.4951519,14.893342 C21.4670459,14.893342 20.6334842,15.7269037 20.6334842,16.7550097 C20.6334842,17.7831157 21.4670459,18.6166774 22.4951519,18.6166774 L24.5119586,18.6166774 C25.5400646,18.6166774 26.3736264,19.4502392 26.3736264,20.4783452 C26.3736264,21.5064512 25.5400646,22.3400129 24.5119586,22.3400129 L13.3419522,22.3400129 C12.3138462,22.3400129 11.4802844,23.1735747 11.4802844,24.2016807 C11.4802844,25.2297867 12.3138462,26.0633484 13.3419522,26.0633484 L31.6483516,26.0633484 C32.6764577,26.0633484 33.5100194,26.8969101 33.5100194,27.9250162 C33.5100194,28.9531222 32.6764577,29.7866839 31.6483516,29.7866839 L19.2372334,29.7866839 C18.2091273,29.7866839 17.3755656,30.6202456 17.3755656,31.6483516 C17.3755656,32.6764577 18.2091273,33.5100194 19.2372334,33.5100194 L20.6334842,33.5100194 C21.6615902,33.5100194 22.4951519,34.3435811 22.4951519,35.3716871 C22.4951519,36.3997931 21.6615902,37.2333549 20.6334842,37.2333549 L14.272786,37.2333549 C13.24468,37.2333549 12.4111183,38.0669166 12.4111183,39.0950226 C12.4111183,40.1231286 13.24468,40.9566904 14.272786,40.9566904 L24.0465417,40.9566904 C25.0746477,40.9566904 25.9082094,41.7902521 25.9082094,42.8183581 C25.9082094,43.8464641 25.0746477,44.6800259 24.0465417,44.6800259 L17.6858436,44.6800259 C16.6577376,44.6800259 15.8241758,45.5135876 15.8241758,46.5416936 C15.8241758,47.5697996 16.6577376,48.4033613 17.6858436,48.4033613 L29.010989,48.4033613 C30.039095,48.4033613 30.8726568,49.2369231 30.8726568,50.2650291 C30.8726568,51.2931351 30.039095,52.1266968 29.010989,52.1266968 L25.2876535,52.1266968 C24.2595475,52.1266968 23.4259858,52.9602586 23.4259858,53.9883646 C23.4259858,54.6995217 23.8250032,55.3169748 24.4111183,55.6305107 C25.5622495,55.7751002 26.7347899,55.8500323 27.9250162,55.8500323 C43.3475372,55.8500323 55.8500323,43.3475372 55.8500323,27.9250162" id="Fill-3" fill="#FFFFFF" opacity="0.5"></path>
                <path d="M55.8500323,27.9250162 C55.8500323,15.8794053 48.223245,5.61525533 37.5352553,1.69784098 C37.5402198,1.75182935 37.5436328,1.80643827 37.5436328,1.86166774 C37.5436328,2.88977376 36.7100711,3.72333549 35.6819651,3.72333549 L35.0614092,3.72333549 C34.0333032,3.72333549 33.1997414,4.55689722 33.1997414,5.58500323 C33.1997414,6.61310924 34.0333032,7.44667098 35.0614092,7.44667098 L41.8875242,7.44667098 C42.9156303,7.44667098 43.749192,8.28023271 43.749192,9.30833872 C43.749192,10.3364447 42.9156303,11.1700065 41.8875242,11.1700065 L36.7679379,11.1700065 C35.7398319,11.1700065 34.9062702,12.0035682 34.9062702,13.0316742 C34.9062702,14.0597802 35.7398319,14.893342 36.7679379,14.893342 L38.6296057,14.893342 C39.6577117,14.893342 40.4912734,15.7269037 40.4912734,16.7550097 C40.4912734,17.7831157 39.6577117,18.6166774 38.6296057,18.6166774 L33.5100194,18.6166774 C32.4819134,18.6166774 31.6483516,19.4502392 31.6483516,20.4783452 C31.6483516,21.5064512 32.4819134,22.3400129 33.5100194,22.3400129 L44.8351648,22.3400129 C45.8632708,22.3400129 46.6968326,23.1735747 46.6968326,24.2016807 C46.6968326,25.2297867 45.8632708,26.0633484 44.8351648,26.0633484 L43.749192,26.0633484 C42.721086,26.0633484 41.8875242,26.8969101 41.8875242,27.9250162 C41.8875242,28.9531222 42.721086,29.7866839 43.749192,29.7866839 L44.8351648,29.7866839 C45.8632708,29.7866839 46.6968326,30.6202456 46.6968326,31.6483516 C46.6968326,32.6764577 45.8632708,33.5100194 44.8351648,33.5100194 L38.6296057,33.5100194 C37.6014997,33.5100194 36.7679379,34.3435811 36.7679379,35.3716871 C36.7679379,36.3997931 37.6014997,37.2333549 38.6296057,37.2333549 L47.3173885,37.2333549 C48.3454945,37.2333549 49.1790562,38.0669166 49.1790562,39.0950226 C49.1790562,40.1231286 48.3454945,40.9566904 47.3173885,40.9566904 L31.9586296,40.9566904 C30.9305236,40.9566904 30.0969619,41.7902521 30.0969619,42.8183581 C30.0969619,43.8464641 30.9305236,44.6800259 31.9586296,44.6800259 L43.438914,44.6800259 C44.46702,44.6800259 45.3005818,45.5135876 45.3005818,46.5416936 C45.3005818,47.5697996 44.46702,48.4033613 43.438914,48.4033613 L37.0782159,48.4033613 C36.0501099,48.4033613 35.2165482,49.2369231 35.2165482,50.2650291 C35.2165482,51.2931351 36.0501099,52.1266968 37.0782159,52.1266968 L38.7847447,52.1266968 C39.4277957,52.1266968 39.9946736,52.452799 40.3291532,52.948468 C49.5271881,48.3802456 55.8500323,38.8917906 55.8500323,27.9250162" id="Fill-5" fill="#FFFFFF" opacity="0.5"></path>
            </g>
            <g id="Group-61" fill="#FF4D62" opacity="0.5">
                <path d="M62,98.2553329 C62,78.7844001 77.7844001,63 97.2553329,63 C116.726266,63 132.510666,78.7844001 132.510666,98.2553329 C132.510666,117.726266 116.726266,133.510666 97.2553329,133.510666 C77.7844001,133.510666 62,117.726266 62,98.2553329" id="Fill-1" filter="url(#filter-1)"></path>
            </g>
        </g>
    </g>
</svg>