<?xml version="1.0" encoding="UTF-8"?>
<svg width="288px" height="183px" viewBox="0 0 288 183" version="1.1" xmlns="http://www.w3.org/2000/svg" xmlns:xlink="http://www.w3.org/1999/xlink">
    <!-- Generator: Sketch 42 (36781) - http://www.bohemiancoding.com/sketch -->
    <title>sky_layer02</title>
    <desc>Created with Sketch.</desc>
    <defs></defs>
    <g id="Page-1" stroke="none" stroke-width="1" fill="none" fill-rule="evenodd">
        <g id="sky_layer02" transform="translate(1.000000, 2.000000)">
            <ellipse id="Oval-8" stroke="#16C4F1" stroke-width="3" stroke-linecap="square" cx="7.17012448" cy="97.7142857" rx="6.14582098" ry="6.17142857"></ellipse>
            <ellipse id="Oval-8" stroke="#FFCB00" stroke-width="3" stroke-linecap="square" cx="172.082988" cy="6.17142857" rx="6.14582098" ry="6.17142857"></ellipse>
            <g id="Group-39" transform="translate(0.000000, 168.685714)" fill="#FF9500">
                <rect id="Rectangle-4" x="0" y="5.14285714" width="12.291642" height="2.05714286" rx="1.02857143"></rect>
                <rect id="Rectangle-4" transform="translate(6.145821, 6.171429) rotate(90.000000) translate(-6.145821, -6.171429) " x="7.42974147e-14" y="5.14285714" width="12.291642" height="2.05714286" rx="1.02857143"></rect>
            </g>
            <g id="Group-43" transform="translate(274.513337, 116.228571)" fill="#16C4F1">
                <rect id="Rectangle-4" x="0" y="5.14285714" width="12.291642" height="2.05714286" rx="1.02857143"></rect>
                <rect id="Rectangle-4" transform="translate(6.145821, 6.171429) rotate(90.000000) translate(-6.145821, -6.171429) " x="7.32360231e-14" y="5.14285714" width="12.291642" height="2.05714286" rx="1.02857143"></rect>
            </g>
            <rect id="Rectangle-18" stroke="#FF4D62" stroke-width="3" stroke-linecap="square" transform="translate(59.058117, 32.561336) rotate(45.000000) translate(-59.058117, -32.561336) " x="54.9609035" y="28.4470501" width="8.19442798" height="8.22857143"></rect>
            <rect id="Rectangle-18" fill="#FF9500" transform="translate(181.974537, 43.875622) rotate(45.000000) translate(-181.974537, -43.875622) " x="177.877323" y="39.7613358" width="8.19442798" height="8.22857143"></rect>
            <ellipse id="Oval-9" fill="#6AFF5B" cx="44.0450504" cy="128.571429" rx="4.09721399" ry="4.11428571"></ellipse>
            <ellipse id="Oval-9" fill="#0086FF" cx="245.832839" cy="164.571429" rx="4.09721399" ry="4.11428571"></ellipse>
        </g>
    </g>
</svg>